<svg id="svg" version="1.1" xmlns="http://www.w3.org/2000/svg" xmlns:xlink="http://www.w3.org/1999/xlink" width="400" height="400" viewBox="0, 0, 400,400"><g id="svgg"><path id="path0" d="M276.275 93.458 C 276.124 93.610,276.000 98.979,276.000 105.390 C 276.000 114.822,275.892 117.195,275.433 117.824 C 274.898 118.555,274.153 118.612,262.533 118.800 L 250.200 119.000 250.091 126.549 C 249.952 136.171,248.529 135.189,262.600 135.182 C 268.760 135.179,274.012 135.182,274.271 135.188 C 275.896 135.228,276.000 136.001,276.000 147.996 C 276.000 154.342,276.109 159.819,276.243 160.167 C 276.609 161.121,291.391 161.121,291.757 160.167 C 291.891 159.819,292.000 154.246,292.000 147.781 C 292.000 136.361,292.023 136.016,292.816 135.591 C 293.356 135.303,297.532 135.166,305.158 135.188 C 314.602 135.215,316.769 135.119,317.151 134.659 C 317.479 134.263,317.586 131.856,317.509 126.548 L 317.400 119.000 305.361 118.800 C 296.028 118.645,293.174 118.478,292.667 118.056 C 292.091 117.578,291.999 116.050,291.906 105.456 L 291.800 93.400 284.175 93.292 C 279.981 93.232,276.426 93.307,276.275 93.458 M178.800 95.224 C 175.077 95.600,169.001 96.621,167.400 97.138 C 166.740 97.352,164.040 98.209,161.400 99.044 C 158.760 99.879,156.316 100.795,155.969 101.081 C 155.621 101.366,155.136 101.600,154.890 101.600 C 154.347 101.600,149.281 104.214,146.800 105.775 C 142.533 108.459,136.782 113.668,134.296 117.100 C 133.619 118.035,132.915 118.800,132.732 118.800 C 132.549 118.800,132.400 118.982,132.400 119.204 C 132.400 119.426,131.813 120.461,131.097 121.504 C 129.550 123.754,126.800 129.228,126.800 130.057 C 126.800 130.377,126.637 130.811,126.438 131.020 C 123.882 133.702,122.873 153.172,125.023 158.318 C 125.341 159.077,125.600 159.964,125.600 160.288 C 125.600 162.139,132.270 174.400,133.276 174.400 C 133.454 174.400,133.600 174.580,133.600 174.800 C 133.600 175.472,137.832 179.580,140.857 181.843 C 148.701 187.711,158.202 190.496,169.881 190.351 C 177.888 190.251,178.986 190.960,176.942 194.911 C 175.990 196.753,175.981 205.277,176.929 207.178 C 177.298 207.918,177.600 208.742,177.600 209.011 C 177.600 209.660,179.228 213.344,179.632 213.608 C 179.807 213.723,180.141 214.263,180.374 214.808 C 180.608 215.354,181.429 216.675,182.199 217.744 C 184.317 220.683,183.548 222.205,180.351 221.402 C 179.259 221.128,170.839 221.749,167.348 222.360 C 166.056 222.586,163.740 222.958,162.200 223.187 C 153.541 224.471,143.948 227.078,138.499 229.629 C 137.123 230.273,135.887 230.800,135.751 230.800 C 135.032 230.800,125.600 236.817,125.600 237.276 C 125.600 237.454,125.416 237.600,125.191 237.600 C 123.878 237.600,116.173 246.127,114.297 249.656 C 113.783 250.622,113.193 251.680,112.985 252.007 C 110.343 256.153,108.698 267.859,110.035 273.000 C 110.264 273.880,110.616 275.374,110.817 276.321 C 111.019 277.267,111.457 278.432,111.792 278.910 C 112.126 279.387,112.400 280.076,112.400 280.440 C 112.400 280.804,112.670 281.326,113.000 281.600 C 113.330 281.874,113.600 282.353,113.600 282.665 C 113.600 283.207,114.837 285.171,115.900 286.318 C 116.175 286.614,116.400 286.990,116.400 287.153 C 116.400 288.747,129.863 299.600,131.840 299.600 C 131.948 299.600,133.383 300.230,135.027 301.000 C 136.672 301.770,138.329 302.401,138.709 302.402 C 139.089 302.404,139.902 302.667,140.517 302.987 C 141.131 303.308,142.481 303.746,143.517 303.962 C 144.552 304.177,146.300 304.548,147.400 304.786 C 155.811 306.602,155.482 306.574,168.200 306.578 C 181.002 306.583,181.553 306.534,190.800 304.584 C 192.230 304.282,194.120 303.914,195.000 303.765 C 195.880 303.617,196.799 303.339,197.043 303.146 C 197.286 302.954,198.276 302.632,199.243 302.429 C 201.211 302.017,204.240 301.000,205.295 300.397 C 205.677 300.179,206.200 300.000,206.459 300.000 C 206.897 300.000,215.628 295.751,217.400 294.676 C 218.854 293.793,220.593 292.617,221.051 292.205 C 221.299 291.982,221.929 291.530,222.451 291.200 C 230.697 285.986,239.515 272.165,241.402 261.495 C 242.335 256.223,241.826 247.348,240.410 244.200 C 240.212 243.760,239.937 242.950,239.798 242.400 C 239.402 240.834,236.218 234.206,235.101 232.624 C 231.401 227.380,226.389 222.033,221.595 218.214 C 219.948 216.902,218.395 215.642,218.144 215.414 C 217.894 215.186,217.207 214.651,216.619 214.225 C 216.031 213.799,215.156 213.103,214.675 212.678 C 214.194 212.254,212.450 210.871,210.800 209.606 C 208.267 207.662,205.202 204.662,203.350 202.312 C 200.721 198.976,200.606 190.889,203.158 188.800 C 203.292 188.690,203.898 187.869,204.503 186.976 C 205.727 185.169,209.837 181.104,213.193 178.380 C 215.987 176.112,223.600 168.549,223.600 168.042 C 223.600 167.830,223.829 167.419,224.109 167.129 C 225.453 165.732,227.796 161.583,229.488 157.600 C 233.505 148.145,233.619 135.967,229.778 126.600 C 228.201 122.754,224.262 115.696,223.192 114.800 C 223.061 114.690,221.600 113.070,219.946 111.200 C 218.293 109.330,216.367 107.174,215.667 106.408 C 213.763 104.325,213.995 104.226,221.432 103.940 C 226.266 103.754,228.625 103.497,229.687 103.040 C 230.505 102.688,231.460 102.400,231.809 102.400 C 232.409 102.400,234.456 101.574,237.600 100.063 C 240.247 98.792,244.778 95.434,244.278 95.116 C 243.661 94.724,182.756 94.824,178.800 95.224 M178.768 103.562 C 187.555 105.230,196.491 113.994,202.921 127.249 C 203.734 128.926,204.400 130.557,204.400 130.873 C 204.400 131.189,204.664 131.796,204.987 132.224 C 205.310 132.651,205.580 133.417,205.587 133.926 C 205.594 134.436,205.783 135.194,206.006 135.611 C 206.229 136.028,206.686 137.682,207.020 139.285 C 207.354 140.888,207.784 142.920,207.976 143.800 C 208.966 148.353,208.728 162.810,207.640 164.166 C 207.449 164.405,207.163 165.204,207.005 165.942 C 206.733 167.213,205.962 169.014,204.465 171.870 C 203.226 174.237,198.046 179.200,196.816 179.200 C 196.587 179.200,196.400 179.353,196.400 179.539 C 196.400 179.880,194.384 180.831,191.400 181.897 C 184.968 184.196,173.570 183.718,170.907 181.039 C 170.738 180.869,170.060 180.479,169.400 180.173 C 166.655 178.899,162.959 175.758,160.799 172.860 C 160.250 172.124,159.516 171.224,159.170 170.860 C 158.823 170.497,158.113 169.480,157.591 168.600 C 157.069 167.720,156.526 166.910,156.383 166.800 C 156.099 166.581,155.814 166.051,153.300 161.056 C 152.365 159.198,151.600 157.401,151.600 157.063 C 151.600 156.724,151.444 156.351,151.253 156.233 C 150.910 156.021,149.798 152.675,148.649 148.400 C 146.099 138.914,146.734 124.798,150.045 117.400 C 152.989 110.820,161.183 104.637,168.123 103.758 C 169.265 103.614,170.470 103.334,170.800 103.138 C 171.480 102.732,175.534 102.947,178.768 103.562 M194.637 228.799 C 199.560 230.593,203.835 233.492,208.798 238.400 C 211.951 241.519,216.400 246.871,216.400 247.545 C 216.400 247.759,216.538 247.993,216.708 248.067 C 217.363 248.351,220.902 254.905,222.395 258.600 C 224.484 263.770,224.396 271.278,222.189 276.200 C 221.893 276.860,221.551 277.670,221.428 278.000 C 220.871 279.498,218.084 283.176,215.869 285.334 C 208.164 292.842,193.129 297.199,178.930 296.039 C 168.776 295.209,161.429 293.757,156.600 291.625 C 151.004 289.155,147.220 287.012,145.163 285.149 C 144.413 284.471,143.380 283.634,142.866 283.289 C 141.021 282.053,135.600 274.306,135.600 272.906 C 135.600 272.628,135.454 272.400,135.275 272.400 C 134.411 272.400,133.140 266.070,133.120 261.670 C 133.101 257.260,134.381 250.800,135.275 250.800 C 135.454 250.800,135.600 250.572,135.600 250.294 C 135.600 247.713,142.418 239.978,147.400 236.907 C 148.768 236.064,154.639 233.201,155.029 233.186 C 155.233 233.179,156.120 232.825,157.000 232.400 C 157.880 231.975,158.894 231.621,159.254 231.614 C 159.614 231.606,160.424 231.331,161.054 231.002 C 161.684 230.674,162.593 230.404,163.074 230.402 C 163.555 230.401,164.455 230.204,165.074 229.964 C 170.503 227.860,189.956 227.094,194.637 228.799 " stroke="none" fill="none" fill-rule="evenodd"></path><path id="path1" d="M174.000 0.400 C 174.000 0.642,172.262 0.800,169.587 0.800 C 166.034 0.800,165.130 0.917,164.945 1.400 C 164.767 1.863,163.993 2.000,161.545 2.000 C 159.096 2.000,158.323 2.137,158.145 2.600 C 157.975 3.041,157.279 3.200,155.520 3.200 C 153.462 3.200,153.096 3.312,152.916 4.000 C 152.734 4.695,152.370 4.800,150.141 4.800 C 148.229 4.800,147.516 4.953,147.345 5.400 C 147.176 5.840,146.482 6.000,144.745 6.000 C 143.007 6.000,142.313 6.160,142.145 6.600 C 141.987 7.010,141.346 7.200,140.120 7.200 C 138.662 7.200,138.286 7.350,138.116 8.000 C 137.943 8.662,137.570 8.800,135.953 8.800 C 134.484 8.800,134.000 8.949,134.000 9.400 C 134.000 9.845,133.532 10.000,132.187 10.000 C 130.945 10.000,130.302 10.189,130.145 10.600 C 130.013 10.942,129.417 11.200,128.757 11.200 C 128.121 11.200,127.240 11.560,126.800 12.000 C 126.352 12.448,125.467 12.800,124.787 12.800 C 124.079 12.800,123.479 13.049,123.345 13.400 C 123.213 13.742,122.617 14.000,121.957 14.000 C 121.195 14.000,120.800 14.205,120.800 14.600 C 120.800 14.987,120.409 15.202,119.700 15.205 C 117.987 15.214,116.800 15.640,116.800 16.247 C 116.800 16.612,116.325 16.800,115.400 16.800 C 114.422 16.800,114.000 16.981,114.000 17.400 C 114.000 17.801,113.599 18.000,112.787 18.000 C 112.079 18.000,111.479 18.249,111.345 18.600 C 111.218 18.930,110.667 19.200,110.120 19.200 C 109.462 19.200,109.054 19.471,108.916 20.000 C 108.759 20.601,108.370 20.800,107.353 20.800 C 106.417 20.800,106.000 20.985,106.000 21.400 C 106.000 21.800,105.600 22.000,104.800 22.000 C 104.000 22.000,103.600 22.200,103.600 22.600 C 103.600 22.933,103.244 23.200,102.800 23.200 C 102.267 23.200,102.000 23.467,102.000 24.000 C 102.000 24.648,101.733 24.800,100.600 24.800 C 99.622 24.800,99.200 24.981,99.200 25.400 C 99.200 25.800,98.800 26.000,98.000 26.000 C 97.200 26.000,96.800 26.200,96.800 26.600 C 96.800 26.933,96.444 27.200,96.000 27.200 C 95.560 27.200,94.840 27.560,94.400 28.000 C 93.960 28.440,93.420 28.800,93.200 28.800 C 92.980 28.800,92.800 29.070,92.800 29.400 C 92.800 29.801,92.399 30.000,91.587 30.000 C 90.879 30.000,90.279 30.249,90.145 30.600 C 90.018 30.930,89.664 31.200,89.357 31.200 C 89.051 31.200,88.800 31.560,88.800 32.000 C 88.800 32.648,88.533 32.800,87.400 32.800 C 86.422 32.800,86.000 32.981,86.000 33.400 C 86.000 33.730,85.730 34.000,85.400 34.000 C 85.070 34.000,84.800 34.270,84.800 34.600 C 84.800 34.933,84.444 35.200,84.000 35.200 C 83.560 35.200,82.840 35.560,82.400 36.000 C 81.960 36.440,81.420 36.800,81.200 36.800 C 80.980 36.800,80.800 37.070,80.800 37.400 C 80.800 37.733,80.444 38.000,80.000 38.000 C 79.560 38.000,79.200 38.248,79.200 38.550 C 79.200 38.852,78.660 39.208,78.000 39.340 C 77.296 39.481,76.800 39.832,76.800 40.190 C 76.800 40.533,76.450 40.800,76.000 40.800 C 75.556 40.800,75.200 41.067,75.200 41.400 C 75.200 41.730,74.930 42.000,74.600 42.000 C 74.270 42.000,74.000 42.270,74.000 42.600 C 74.000 42.930,73.730 43.200,73.400 43.200 C 73.067 43.200,72.800 43.556,72.800 44.000 C 72.800 44.624,72.533 44.800,71.587 44.800 C 70.879 44.800,70.279 45.049,70.145 45.400 C 70.018 45.730,69.664 46.000,69.357 46.000 C 69.051 46.000,68.800 46.249,68.800 46.553 C 68.800 46.858,68.440 47.201,68.000 47.316 C 67.560 47.431,67.200 47.812,67.200 48.163 C 67.200 48.513,66.930 48.800,66.600 48.800 C 66.270 48.800,66.000 49.070,66.000 49.400 C 66.000 49.730,65.730 50.000,65.400 50.000 C 65.070 50.000,64.800 50.249,64.800 50.553 C 64.800 50.858,64.440 51.201,64.000 51.316 C 63.560 51.431,63.200 51.812,63.200 52.163 C 63.200 52.513,62.930 52.800,62.600 52.800 C 62.270 52.800,62.000 53.070,62.000 53.400 C 62.000 53.730,61.730 54.000,61.400 54.000 C 61.070 54.000,60.800 54.249,60.800 54.553 C 60.800 54.858,60.440 55.201,60.000 55.316 C 59.560 55.431,59.200 55.812,59.200 56.163 C 59.200 56.513,58.930 56.800,58.600 56.800 C 58.270 56.800,58.000 57.070,58.000 57.400 C 58.000 57.730,57.730 58.000,57.400 58.000 C 57.070 58.000,56.800 58.249,56.800 58.553 C 56.800 58.858,56.440 59.201,56.000 59.316 C 55.560 59.431,55.200 59.812,55.200 60.163 C 55.200 60.513,54.930 60.800,54.600 60.800 C 54.270 60.800,54.000 61.070,54.000 61.400 C 54.000 61.730,53.730 62.000,53.400 62.000 C 53.070 62.000,52.800 62.249,52.800 62.553 C 52.800 62.858,52.440 63.201,52.000 63.316 C 51.560 63.431,51.200 63.812,51.200 64.163 C 51.200 64.513,50.930 64.800,50.600 64.800 C 50.270 64.800,50.000 65.070,50.000 65.400 C 50.000 65.730,49.730 66.000,49.400 66.000 C 49.070 66.000,48.800 66.249,48.800 66.553 C 48.800 66.858,48.440 67.201,48.000 67.316 C 47.560 67.431,47.200 67.812,47.200 68.163 C 47.200 68.513,46.930 68.800,46.600 68.800 C 46.270 68.800,46.000 69.076,46.000 69.413 C 46.000 69.749,45.730 70.129,45.400 70.255 C 45.058 70.387,44.800 70.983,44.800 71.643 C 44.800 72.533,44.616 72.800,44.000 72.800 C 43.556 72.800,43.200 73.067,43.200 73.400 C 43.200 73.730,42.930 74.000,42.600 74.000 C 42.270 74.000,42.000 74.251,42.000 74.557 C 42.000 74.864,41.730 75.218,41.400 75.345 C 41.070 75.471,40.800 75.761,40.800 75.987 C 40.800 76.214,40.440 76.760,40.000 77.200 C 39.560 77.640,39.200 78.270,39.200 78.600 C 39.200 78.930,38.930 79.200,38.600 79.200 C 38.267 79.200,38.000 79.556,38.000 80.000 C 38.000 80.444,37.733 80.800,37.400 80.800 C 37.070 80.800,36.800 81.070,36.800 81.400 C 36.800 81.730,36.440 82.360,36.000 82.800 C 35.560 83.240,35.200 83.870,35.200 84.200 C 35.200 84.530,34.930 84.800,34.600 84.800 C 34.270 84.800,34.000 85.051,34.000 85.357 C 34.000 85.664,33.730 86.018,33.400 86.145 C 33.049 86.279,32.800 86.879,32.800 87.587 C 32.800 88.533,32.624 88.800,32.000 88.800 C 31.560 88.800,31.200 89.048,31.200 89.351 C 31.200 89.654,30.930 90.126,30.600 90.400 C 30.270 90.674,30.000 91.326,30.000 91.849 C 30.000 92.428,29.765 92.800,29.400 92.800 C 29.000 92.800,28.800 93.200,28.800 94.000 C 28.800 94.831,28.604 95.200,28.163 95.200 C 27.812 95.200,27.431 95.560,27.316 96.000 C 27.201 96.440,26.858 96.800,26.553 96.800 C 26.205 96.800,26.000 97.245,26.000 98.000 C 26.000 98.800,25.800 99.200,25.400 99.200 C 24.981 99.200,24.800 99.622,24.800 100.600 C 24.800 101.565,24.617 102.000,24.212 102.000 C 23.888 102.000,23.155 102.990,22.583 104.200 C 22.010 105.410,21.375 106.400,21.171 106.400 C 20.967 106.400,20.800 106.940,20.800 107.600 C 20.800 108.383,20.598 108.800,20.218 108.800 C 19.872 108.800,19.532 109.356,19.379 110.172 C 19.237 110.927,18.869 111.641,18.561 111.760 C 18.252 111.878,18.000 112.499,18.000 113.138 C 18.000 113.778,17.730 114.526,17.400 114.800 C 17.070 115.074,16.800 115.885,16.800 116.602 C 16.800 117.570,16.594 117.961,16.000 118.116 C 15.417 118.268,15.200 118.662,15.200 119.563 C 15.200 120.396,15.004 120.800,14.600 120.800 C 14.185 120.800,14.000 121.217,14.000 122.157 C 14.000 122.995,13.770 123.603,13.400 123.745 C 13.013 123.893,12.800 124.512,12.800 125.491 C 12.800 126.574,12.571 127.150,12.000 127.507 C 11.423 127.867,11.200 128.440,11.200 129.561 C 11.200 130.573,10.991 131.195,10.600 131.345 C 10.228 131.487,10.000 132.096,10.000 132.945 C 10.000 133.793,9.772 134.402,9.400 134.545 C 9.004 134.697,8.800 135.323,8.800 136.387 C 8.800 137.467,8.535 138.265,8.000 138.800 C 7.443 139.357,7.200 140.133,7.200 141.357 C 7.200 142.550,7.007 143.188,6.600 143.345 C 6.177 143.507,6.000 144.168,6.000 145.587 C 6.000 147.110,5.854 147.600,5.400 147.600 C 4.933 147.600,4.800 148.133,4.800 150.000 C 4.800 151.867,4.622 152.578,4.000 153.200 C 3.363 153.837,3.200 154.533,3.200 156.613 C 3.200 158.566,3.049 159.283,2.600 159.455 C 2.138 159.633,2.000 160.400,2.000 162.794 C 2.000 165.069,1.839 166.036,1.400 166.400 C 0.926 166.794,0.800 167.936,0.800 171.849 C 0.800 174.883,0.645 176.800,0.400 176.800 C 0.138 176.800,0.000 184.800,0.000 200.000 C 0.000 215.200,0.138 223.200,0.400 223.200 C 0.646 223.200,0.800 225.186,0.800 228.357 C 0.800 232.572,0.910 233.556,1.400 233.745 C 1.863 233.923,2.000 234.696,2.000 237.145 C 2.000 239.593,2.137 240.367,2.600 240.545 C 3.049 240.717,3.200 241.434,3.200 243.387 C 3.200 245.467,3.363 246.163,4.000 246.800 C 4.622 247.422,4.800 248.133,4.800 250.000 C 4.800 251.867,4.933 252.400,5.400 252.400 C 5.854 252.400,6.000 252.890,6.000 254.413 C 6.000 255.832,6.177 256.493,6.600 256.655 C 7.007 256.812,7.200 257.450,7.200 258.643 C 7.200 259.867,7.443 260.643,8.000 261.200 C 8.557 261.757,8.800 262.533,8.800 263.757 C 8.800 264.950,8.993 265.588,9.400 265.745 C 9.753 265.880,10.000 266.480,10.000 267.200 C 10.000 267.920,10.247 268.520,10.600 268.655 C 11.010 268.813,11.200 269.454,11.200 270.680 C 11.200 272.138,11.350 272.514,12.000 272.684 C 12.647 272.853,12.800 273.230,12.800 274.647 C 12.800 275.939,12.958 276.400,13.400 276.400 C 13.819 276.400,14.000 276.822,14.000 277.800 C 14.000 278.778,14.181 279.200,14.600 279.200 C 15.004 279.200,15.200 279.604,15.200 280.437 C 15.200 281.338,15.417 281.732,16.000 281.884 C 16.621 282.047,16.800 282.430,16.800 283.598 C 16.800 284.447,17.061 285.319,17.400 285.600 C 17.730 285.874,18.000 286.532,18.000 287.062 C 18.000 287.591,18.252 288.122,18.561 288.240 C 18.869 288.359,19.237 289.073,19.379 289.828 C 19.532 290.644,19.872 291.200,20.218 291.200 C 20.598 291.200,20.800 291.617,20.800 292.400 C 20.800 293.060,20.964 293.600,21.164 293.600 C 21.562 293.600,23.200 296.760,23.200 297.526 C 23.200 297.787,23.560 298.000,24.000 298.000 C 24.648 298.000,24.800 298.267,24.800 299.400 C 24.800 300.378,24.981 300.800,25.400 300.800 C 25.800 300.800,26.000 301.200,26.000 302.000 C 26.000 302.800,26.200 303.200,26.600 303.200 C 26.930 303.200,27.200 303.487,27.200 303.837 C 27.200 304.188,27.560 304.569,28.000 304.684 C 28.567 304.832,28.800 305.230,28.800 306.047 C 28.800 306.805,29.005 307.200,29.400 307.200 C 29.801 307.200,30.000 307.601,30.000 308.413 C 30.000 309.121,30.249 309.721,30.600 309.855 C 30.930 309.982,31.200 310.336,31.200 310.643 C 31.200 310.949,31.560 311.200,32.000 311.200 C 32.624 311.200,32.800 311.467,32.800 312.413 C 32.800 313.121,33.049 313.721,33.400 313.855 C 33.730 313.982,34.000 314.336,34.000 314.643 C 34.000 314.949,34.270 315.200,34.600 315.200 C 34.930 315.200,35.200 315.470,35.200 315.800 C 35.200 316.130,35.560 316.760,36.000 317.200 C 36.440 317.640,36.800 318.270,36.800 318.600 C 36.800 318.930,37.070 319.200,37.400 319.200 C 37.733 319.200,38.000 319.556,38.000 320.000 C 38.000 320.440,38.256 320.800,38.568 320.800 C 38.881 320.800,39.255 321.340,39.400 322.000 C 39.545 322.660,39.919 323.200,40.232 323.200 C 40.544 323.200,40.800 323.476,40.800 323.813 C 40.800 324.149,41.070 324.529,41.400 324.655 C 41.730 324.782,42.000 325.136,42.000 325.443 C 42.000 325.749,42.270 326.000,42.600 326.000 C 42.930 326.000,43.200 326.270,43.200 326.600 C 43.200 326.933,43.556 327.200,44.000 327.200 C 44.624 327.200,44.800 327.467,44.800 328.413 C 44.800 329.121,45.049 329.721,45.400 329.855 C 45.730 329.982,46.000 330.336,46.000 330.643 C 46.000 330.949,46.249 331.200,46.553 331.200 C 46.858 331.200,47.201 331.560,47.316 332.000 C 47.431 332.440,47.812 332.800,48.163 332.800 C 48.513 332.800,48.800 333.070,48.800 333.400 C 48.800 333.730,49.070 334.000,49.400 334.000 C 49.730 334.000,50.000 334.270,50.000 334.600 C 50.000 334.930,50.270 335.200,50.600 335.200 C 50.930 335.200,51.200 335.487,51.200 335.837 C 51.200 336.188,51.560 336.569,52.000 336.684 C 52.440 336.799,52.800 337.142,52.800 337.447 C 52.800 337.751,53.070 338.000,53.400 338.000 C 53.730 338.000,54.000 338.270,54.000 338.600 C 54.000 338.930,54.270 339.200,54.600 339.200 C 54.930 339.200,55.200 339.487,55.200 339.837 C 55.200 340.188,55.560 340.569,56.000 340.684 C 56.440 340.799,56.800 341.142,56.800 341.447 C 56.800 341.751,57.070 342.000,57.400 342.000 C 57.730 342.000,58.000 342.270,58.000 342.600 C 58.000 342.930,58.270 343.200,58.600 343.200 C 58.930 343.200,59.200 343.487,59.200 343.837 C 59.200 344.188,59.560 344.569,60.000 344.684 C 60.440 344.799,60.800 345.142,60.800 345.447 C 60.800 345.751,61.070 346.000,61.400 346.000 C 61.730 346.000,62.000 346.270,62.000 346.600 C 62.000 346.930,62.270 347.200,62.600 347.200 C 62.930 347.200,63.200 347.487,63.200 347.837 C 63.200 348.188,63.560 348.569,64.000 348.684 C 64.440 348.799,64.800 349.142,64.800 349.447 C 64.800 349.751,65.070 350.000,65.400 350.000 C 65.730 350.000,66.000 350.270,66.000 350.600 C 66.000 350.930,66.270 351.200,66.600 351.200 C 66.930 351.200,67.200 351.487,67.200 351.837 C 67.200 352.188,67.560 352.569,68.000 352.684 C 68.440 352.799,68.800 353.142,68.800 353.447 C 68.800 353.751,69.051 354.000,69.357 354.000 C 69.664 354.000,70.018 354.270,70.145 354.600 C 70.279 354.951,70.879 355.200,71.587 355.200 C 72.533 355.200,72.800 355.376,72.800 356.000 C 72.800 356.444,73.067 356.800,73.400 356.800 C 73.730 356.800,74.000 357.070,74.000 357.400 C 74.000 357.730,74.270 358.000,74.600 358.000 C 74.930 358.000,75.200 358.270,75.200 358.600 C 75.200 358.933,75.556 359.200,76.000 359.200 C 76.450 359.200,76.800 359.467,76.800 359.810 C 76.800 360.168,77.296 360.519,78.000 360.660 C 78.660 360.792,79.200 361.148,79.200 361.450 C 79.200 361.753,79.560 362.000,80.000 362.000 C 80.444 362.000,80.800 362.267,80.800 362.600 C 80.800 362.930,81.070 363.200,81.400 363.200 C 81.730 363.200,82.000 363.462,82.000 363.782 C 82.000 364.130,82.562 364.469,83.400 364.626 C 84.202 364.777,84.800 365.126,84.800 365.445 C 84.800 365.750,85.070 366.000,85.400 366.000 C 85.730 366.000,86.000 366.270,86.000 366.600 C 86.000 367.019,86.422 367.200,87.400 367.200 C 88.533 367.200,88.800 367.352,88.800 368.000 C 88.800 368.444,89.067 368.800,89.400 368.800 C 89.730 368.800,90.000 369.070,90.000 369.400 C 90.000 369.819,90.422 370.000,91.400 370.000 C 92.378 370.000,92.800 370.181,92.800 370.600 C 92.800 370.930,93.070 371.200,93.400 371.200 C 93.730 371.200,94.000 371.462,94.000 371.782 C 94.000 372.130,94.562 372.469,95.400 372.626 C 96.202 372.777,96.800 373.126,96.800 373.445 C 96.800 373.795,97.243 374.000,98.000 374.000 C 98.800 374.000,99.200 374.200,99.200 374.600 C 99.200 374.936,99.557 375.200,100.013 375.200 C 100.459 375.200,100.924 375.457,101.045 375.772 C 101.165 376.087,101.790 376.527,102.432 376.751 C 103.074 376.975,103.600 377.348,103.600 377.579 C 103.600 377.811,104.140 378.000,104.800 378.000 C 105.600 378.000,106.000 378.200,106.000 378.600 C 106.000 379.015,106.417 379.200,107.353 379.200 C 108.370 379.200,108.759 379.399,108.916 380.000 C 109.054 380.529,109.462 380.800,110.120 380.800 C 110.667 380.800,111.218 381.070,111.345 381.400 C 111.479 381.751,112.079 382.000,112.787 382.000 C 113.599 382.000,114.000 382.199,114.000 382.600 C 114.000 383.019,114.422 383.200,115.400 383.200 C 116.325 383.200,116.800 383.388,116.800 383.753 C 116.800 384.360,117.987 384.786,119.700 384.795 C 120.409 384.798,120.800 385.013,120.800 385.400 C 120.800 385.795,121.195 386.000,121.957 386.000 C 122.617 386.000,123.213 386.258,123.345 386.600 C 123.479 386.951,124.079 387.200,124.787 387.200 C 125.467 387.200,126.352 387.552,126.800 388.000 C 127.240 388.440,128.121 388.800,128.757 388.800 C 129.417 388.800,130.013 389.058,130.145 389.400 C 130.302 389.811,130.945 390.000,132.187 390.000 C 133.532 390.000,134.000 390.155,134.000 390.600 C 134.000 391.051,134.484 391.200,135.953 391.200 C 137.570 391.200,137.943 391.338,138.116 392.000 C 138.286 392.650,138.662 392.800,140.120 392.800 C 141.346 392.800,141.987 392.990,142.145 393.400 C 142.313 393.840,143.007 394.000,144.745 394.000 C 146.482 394.000,147.176 394.160,147.345 394.600 C 147.516 395.047,148.229 395.200,150.141 395.200 C 152.370 395.200,152.734 395.305,152.916 396.000 C 153.096 396.688,153.462 396.800,155.520 396.800 C 157.279 396.800,157.975 396.959,158.145 397.400 C 158.323 397.863,159.096 398.000,161.545 398.000 C 163.993 398.000,164.767 398.137,164.945 398.600 C 165.130 399.083,166.034 399.200,169.587 399.200 C 172.262 399.200,174.000 399.358,174.000 399.600 C 174.000 399.863,182.933 400.000,200.000 400.000 C 217.067 400.000,226.000 399.863,226.000 399.600 C 226.000 399.358,227.738 399.200,230.413 399.200 C 233.966 399.200,234.870 399.083,235.055 398.600 C 235.233 398.137,236.007 398.000,238.455 398.000 C 240.904 398.000,241.677 397.863,241.855 397.400 C 242.025 396.959,242.721 396.800,244.480 396.800 C 246.538 396.800,246.904 396.688,247.084 396.000 C 247.266 395.305,247.630 395.200,249.859 395.200 C 251.771 395.200,252.484 395.047,252.655 394.600 C 252.824 394.160,253.518 394.000,255.255 394.000 C 256.993 394.000,257.687 393.840,257.855 393.400 C 258.013 392.990,258.654 392.800,259.880 392.800 C 261.338 392.800,261.714 392.650,261.884 392.000 C 262.057 391.338,262.430 391.200,264.047 391.200 C 265.516 391.200,266.000 391.051,266.000 390.600 C 266.000 390.155,266.468 390.000,267.813 390.000 C 269.055 390.000,269.698 389.811,269.855 389.400 C 269.986 389.060,270.582 388.800,271.229 388.800 C 271.962 388.800,272.525 388.514,272.800 388.000 C 273.118 387.405,273.638 387.200,274.827 387.200 C 275.879 387.200,276.504 386.995,276.655 386.600 C 276.787 386.258,277.383 386.000,278.043 386.000 C 278.805 386.000,279.200 385.795,279.200 385.400 C 279.200 385.013,279.591 384.798,280.300 384.795 C 282.013 384.786,283.200 384.360,283.200 383.753 C 283.200 383.388,283.675 383.200,284.600 383.200 C 285.578 383.200,286.000 383.019,286.000 382.600 C 286.000 382.199,286.401 382.000,287.213 382.000 C 287.921 382.000,288.521 381.751,288.655 381.400 C 288.782 381.070,289.333 380.800,289.880 380.800 C 290.538 380.800,290.946 380.529,291.084 380.000 C 291.241 379.399,291.630 379.200,292.647 379.200 C 293.583 379.200,294.000 379.015,294.000 378.600 C 294.000 378.200,294.400 378.000,295.200 378.000 C 296.000 378.000,296.400 377.800,296.400 377.400 C 296.400 377.067,296.756 376.800,297.200 376.800 C 297.733 376.800,298.000 376.533,298.000 376.000 C 298.000 375.352,298.267 375.200,299.400 375.200 C 300.378 375.200,300.800 375.019,300.800 374.600 C 300.800 374.200,301.200 374.000,302.000 374.000 C 302.800 374.000,303.200 373.800,303.200 373.400 C 303.200 373.067,303.556 372.800,304.000 372.800 C 304.440 372.800,305.160 372.440,305.600 372.000 C 306.040 371.560,306.580 371.200,306.800 371.200 C 307.020 371.200,307.200 370.930,307.200 370.600 C 307.200 370.199,307.601 370.000,308.413 370.000 C 309.121 370.000,309.721 369.751,309.855 369.400 C 309.982 369.070,310.336 368.800,310.643 368.800 C 310.949 368.800,311.200 368.440,311.200 368.000 C 311.200 367.352,311.467 367.200,312.600 367.200 C 313.578 367.200,314.000 367.019,314.000 366.600 C 314.000 366.270,314.270 366.000,314.600 366.000 C 314.930 366.000,315.200 365.730,315.200 365.400 C 315.200 365.067,315.556 364.800,316.000 364.800 C 316.440 364.800,317.160 364.440,317.600 364.000 C 318.040 363.560,318.580 363.200,318.800 363.200 C 319.020 363.200,319.200 362.930,319.200 362.600 C 319.200 362.267,319.556 362.000,320.000 362.000 C 320.440 362.000,320.800 361.753,320.800 361.450 C 320.800 361.148,321.340 360.792,322.000 360.660 C 322.704 360.519,323.200 360.168,323.200 359.810 C 323.200 359.467,323.550 359.200,324.000 359.200 C 324.444 359.200,324.800 358.933,324.800 358.600 C 324.800 358.270,325.070 358.000,325.400 358.000 C 325.730 358.000,326.000 357.730,326.000 357.400 C 326.000 357.070,326.270 356.800,326.600 356.800 C 326.933 356.800,327.200 356.444,327.200 356.000 C 327.200 355.376,327.467 355.200,328.413 355.200 C 329.121 355.200,329.721 354.951,329.855 354.600 C 329.982 354.270,330.336 354.000,330.643 354.000 C 330.949 354.000,331.200 353.751,331.200 353.447 C 331.200 353.142,331.560 352.799,332.000 352.684 C 332.440 352.569,332.800 352.188,332.800 351.837 C 332.800 351.487,333.070 351.200,333.400 351.200 C 333.730 351.200,334.000 350.930,334.000 350.600 C 334.000 350.270,334.270 350.000,334.600 350.000 C 334.930 350.000,335.200 349.751,335.200 349.447 C 335.200 349.142,335.560 348.799,336.000 348.684 C 336.440 348.569,336.800 348.188,336.800 347.837 C 336.800 347.487,337.070 347.200,337.400 347.200 C 337.730 347.200,338.000 346.930,338.000 346.600 C 338.000 346.270,338.270 346.000,338.600 346.000 C 338.930 346.000,339.200 345.751,339.200 345.447 C 339.200 345.142,339.560 344.799,340.000 344.684 C 340.440 344.569,340.800 344.188,340.800 343.837 C 340.800 343.487,341.070 343.200,341.400 343.200 C 341.730 343.200,342.000 342.930,342.000 342.600 C 342.000 342.270,342.270 342.000,342.600 342.000 C 342.930 342.000,343.200 341.751,343.200 341.447 C 343.200 341.142,343.560 340.799,344.000 340.684 C 344.440 340.569,344.800 340.188,344.800 339.837 C 344.800 339.487,345.070 339.200,345.400 339.200 C 345.730 339.200,346.000 338.930,346.000 338.600 C 346.000 338.270,346.270 338.000,346.600 338.000 C 346.930 338.000,347.200 337.751,347.200 337.447 C 347.200 337.142,347.560 336.799,348.000 336.684 C 348.440 336.569,348.800 336.188,348.800 335.837 C 348.800 335.487,349.070 335.200,349.400 335.200 C 349.730 335.200,350.000 334.930,350.000 334.600 C 350.000 334.270,350.270 334.000,350.600 334.000 C 350.930 334.000,351.200 333.751,351.200 333.447 C 351.200 333.142,351.560 332.799,352.000 332.684 C 352.440 332.569,352.800 332.188,352.800 331.837 C 352.800 331.487,353.070 331.200,353.400 331.200 C 353.730 331.200,354.000 330.924,354.000 330.587 C 354.000 330.251,354.270 329.871,354.600 329.745 C 354.942 329.613,355.200 329.017,355.200 328.357 C 355.200 327.467,355.384 327.200,356.000 327.200 C 356.444 327.200,356.800 326.933,356.800 326.600 C 356.800 326.270,357.070 326.000,357.400 326.000 C 357.730 326.000,358.000 325.749,358.000 325.443 C 358.000 325.136,358.270 324.782,358.600 324.655 C 358.930 324.529,359.200 324.239,359.200 324.013 C 359.200 323.786,359.560 323.240,360.000 322.800 C 360.440 322.360,360.800 321.730,360.800 321.400 C 360.800 321.070,361.070 320.800,361.400 320.800 C 361.733 320.800,362.000 320.444,362.000 320.000 C 362.000 319.556,362.267 319.200,362.600 319.200 C 362.930 319.200,363.200 318.930,363.200 318.600 C 363.200 318.270,363.560 317.640,364.000 317.200 C 364.440 316.760,364.800 316.130,364.800 315.800 C 364.800 315.470,365.070 315.200,365.400 315.200 C 365.730 315.200,366.000 314.949,366.000 314.643 C 366.000 314.336,366.270 313.982,366.600 313.855 C 366.951 313.721,367.200 313.121,367.200 312.413 C 367.200 311.467,367.376 311.200,368.000 311.200 C 368.440 311.200,368.800 310.952,368.800 310.649 C 368.800 310.346,369.070 309.874,369.400 309.600 C 369.730 309.326,370.000 308.674,370.000 308.151 C 370.000 307.572,370.235 307.200,370.600 307.200 C 370.995 307.200,371.200 306.805,371.200 306.047 C 371.200 305.230,371.433 304.832,372.000 304.684 C 372.440 304.569,372.800 304.188,372.800 303.837 C 372.800 303.487,373.070 303.200,373.400 303.200 C 373.800 303.200,374.000 302.800,374.000 302.000 C 374.000 301.200,374.200 300.800,374.600 300.800 C 375.019 300.800,375.200 300.378,375.200 299.400 C 375.200 298.435,375.383 298.000,375.788 298.000 C 376.112 298.000,376.845 297.010,377.417 295.800 C 377.990 294.590,378.625 293.600,378.829 293.600 C 379.033 293.600,379.200 293.060,379.200 292.400 C 379.200 291.617,379.402 291.200,379.782 291.200 C 380.128 291.200,380.468 290.644,380.621 289.828 C 380.763 289.073,381.131 288.359,381.439 288.240 C 381.748 288.122,382.000 287.501,382.000 286.862 C 382.000 286.222,382.270 285.474,382.600 285.200 C 382.930 284.926,383.200 284.115,383.200 283.398 C 383.200 282.430,383.406 282.039,384.000 281.884 C 384.583 281.732,384.800 281.338,384.800 280.437 C 384.800 279.604,384.996 279.200,385.400 279.200 C 385.815 279.200,386.000 278.783,386.000 277.843 C 386.000 277.005,386.230 276.397,386.600 276.255 C 386.987 276.107,387.200 275.488,387.200 274.509 C 387.200 273.426,387.429 272.850,388.000 272.493 C 388.577 272.133,388.800 271.560,388.800 270.439 C 388.800 269.427,389.009 268.805,389.400 268.655 C 389.772 268.513,390.000 267.904,390.000 267.055 C 390.000 266.207,390.228 265.598,390.600 265.455 C 391.023 265.293,391.200 264.634,391.200 263.227 C 391.200 261.638,391.364 261.140,392.000 260.800 C 392.612 260.472,392.800 259.962,392.800 258.629 C 392.800 257.448,392.994 256.811,393.400 256.655 C 393.821 256.494,394.000 255.837,394.000 254.455 C 394.000 253.073,394.179 252.417,394.600 252.255 C 395.041 252.086,395.200 251.390,395.200 249.632 C 395.200 247.782,395.357 247.152,395.891 246.853 C 396.426 246.554,396.616 245.784,396.734 243.433 C 396.848 241.183,397.031 240.400,397.444 240.400 C 397.875 240.400,398.000 239.643,398.000 237.043 C 398.000 234.428,398.133 233.635,398.600 233.455 C 399.089 233.268,399.200 232.299,399.200 228.213 C 399.200 225.138,399.355 223.200,399.600 223.200 C 399.862 223.200,400.000 215.200,400.000 200.000 C 400.000 184.800,399.862 176.800,399.600 176.800 C 399.356 176.800,399.200 174.950,399.200 172.049 C 399.200 168.314,399.072 167.191,398.600 166.800 C 398.154 166.430,398.000 165.442,398.000 162.951 C 398.000 160.356,397.874 159.600,397.444 159.600 C 397.031 159.600,396.848 158.817,396.734 156.567 C 396.616 154.216,396.426 153.446,395.891 153.147 C 395.357 152.848,395.200 152.218,395.200 150.368 C 395.200 148.610,395.041 147.914,394.600 147.745 C 394.179 147.583,394.000 146.927,394.000 145.545 C 394.000 144.163,393.821 143.506,393.400 143.345 C 392.993 143.188,392.800 142.550,392.800 141.357 C 392.800 140.133,392.557 139.357,392.000 138.800 C 391.516 138.316,391.200 137.467,391.200 136.649 C 391.200 135.906,390.930 135.074,390.600 134.800 C 390.270 134.526,390.000 133.688,390.000 132.938 C 390.000 132.095,389.771 131.487,389.400 131.345 C 389.009 131.195,388.800 130.573,388.800 129.561 C 388.800 128.440,388.577 127.867,388.000 127.507 C 387.472 127.177,387.200 126.574,387.200 125.732 C 387.200 125.031,386.930 124.187,386.600 123.857 C 386.270 123.527,386.000 122.704,386.000 122.029 C 386.000 121.203,385.803 120.800,385.400 120.800 C 384.996 120.800,384.800 120.396,384.800 119.563 C 384.800 118.662,384.583 118.268,384.000 118.116 C 383.399 117.959,383.200 117.570,383.200 116.553 C 383.200 115.617,383.015 115.200,382.600 115.200 C 382.211 115.200,382.000 114.810,382.000 114.089 C 382.000 113.478,381.753 112.623,381.451 112.189 C 381.149 111.755,380.775 110.815,380.619 110.100 C 380.462 109.376,380.085 108.800,379.768 108.800 C 379.456 108.800,379.200 108.462,379.200 108.049 C 379.200 107.636,378.930 107.074,378.600 106.800 C 378.270 106.526,378.000 105.964,378.000 105.551 C 378.000 105.138,377.730 104.800,377.400 104.800 C 376.996 104.800,376.800 104.396,376.800 103.563 C 376.800 102.662,376.583 102.268,376.000 102.116 C 375.431 101.967,375.200 101.570,375.200 100.741 C 375.200 100.073,374.943 99.476,374.600 99.345 C 374.258 99.213,374.000 98.617,374.000 97.957 C 374.000 97.239,373.790 96.800,373.447 96.800 C 373.142 96.800,372.799 96.440,372.684 96.000 C 372.569 95.560,372.188 95.200,371.837 95.200 C 371.396 95.200,371.200 94.831,371.200 94.000 C 371.200 93.200,371.000 92.800,370.600 92.800 C 370.270 92.800,370.000 92.453,370.000 92.029 C 370.000 91.604,369.730 90.987,369.400 90.657 C 369.070 90.327,368.800 89.774,368.800 89.429 C 368.800 89.067,368.461 88.800,368.000 88.800 C 367.376 88.800,367.200 88.533,367.200 87.587 C 367.200 86.879,366.951 86.279,366.600 86.145 C 366.270 86.018,366.000 85.664,366.000 85.357 C 366.000 85.051,365.751 84.800,365.447 84.800 C 365.142 84.800,364.799 84.440,364.684 84.000 C 364.569 83.560,364.188 83.200,363.837 83.200 C 363.396 83.200,363.200 82.831,363.200 82.000 C 363.200 81.200,363.000 80.800,362.600 80.800 C 362.267 80.800,362.000 80.444,362.000 80.000 C 362.000 79.556,361.733 79.200,361.400 79.200 C 361.070 79.200,360.800 78.973,360.800 78.696 C 360.800 78.419,360.440 77.968,360.000 77.693 C 359.560 77.418,359.200 76.829,359.200 76.384 C 359.200 75.939,358.930 75.471,358.600 75.345 C 358.270 75.218,358.000 74.864,358.000 74.557 C 358.000 74.251,357.730 74.000,357.400 74.000 C 357.070 74.000,356.800 73.730,356.800 73.400 C 356.800 73.067,356.444 72.800,356.000 72.800 C 355.411 72.800,355.200 72.533,355.200 71.787 C 355.200 71.231,354.930 70.671,354.600 70.545 C 354.270 70.418,354.000 69.974,354.000 69.557 C 354.000 69.141,353.751 68.800,353.447 68.800 C 353.142 68.800,352.799 68.440,352.684 68.000 C 352.569 67.560,352.188 67.200,351.837 67.200 C 351.487 67.200,351.200 66.930,351.200 66.600 C 351.200 66.270,350.930 66.000,350.600 66.000 C 350.270 66.000,350.000 65.730,350.000 65.400 C 350.000 65.070,349.751 64.800,349.447 64.800 C 349.142 64.800,348.799 64.440,348.684 64.000 C 348.569 63.560,348.188 63.200,347.837 63.200 C 347.487 63.200,347.200 62.930,347.200 62.600 C 347.200 62.270,346.930 62.000,346.600 62.000 C 346.270 62.000,346.000 61.730,346.000 61.400 C 346.000 61.070,345.751 60.800,345.447 60.800 C 345.142 60.800,344.799 60.440,344.684 60.000 C 344.569 59.560,344.188 59.200,343.837 59.200 C 343.487 59.200,343.200 58.930,343.200 58.600 C 343.200 58.270,342.930 58.000,342.600 58.000 C 342.270 58.000,342.000 57.730,342.000 57.400 C 342.000 57.070,341.751 56.800,341.447 56.800 C 341.142 56.800,340.799 56.440,340.684 56.000 C 340.569 55.560,340.188 55.200,339.837 55.200 C 339.487 55.200,339.200 54.930,339.200 54.600 C 339.200 54.270,338.930 54.000,338.600 54.000 C 338.270 54.000,338.000 53.730,338.000 53.400 C 338.000 53.070,337.751 52.800,337.447 52.800 C 337.142 52.800,336.799 52.440,336.684 52.000 C 336.569 51.560,336.188 51.200,335.837 51.200 C 335.487 51.200,335.200 50.930,335.200 50.600 C 335.200 50.270,334.930 50.000,334.600 50.000 C 334.270 50.000,334.000 49.730,334.000 49.400 C 334.000 49.070,333.751 48.800,333.447 48.800 C 333.142 48.800,332.799 48.440,332.684 48.000 C 332.569 47.560,332.188 47.200,331.837 47.200 C 331.487 47.200,331.200 46.930,331.200 46.600 C 331.200 46.270,330.924 46.000,330.587 46.000 C 330.251 46.000,329.871 45.730,329.745 45.400 C 329.613 45.058,329.017 44.800,328.357 44.800 C 327.467 44.800,327.200 44.616,327.200 44.000 C 327.200 43.556,326.933 43.200,326.600 43.200 C 326.270 43.200,326.000 42.930,326.000 42.600 C 326.000 42.270,325.749 42.000,325.443 42.000 C 325.136 42.000,324.782 41.730,324.655 41.400 C 324.529 41.070,324.149 40.800,323.813 40.800 C 323.476 40.800,323.200 40.544,323.200 40.232 C 323.200 39.919,322.660 39.545,322.000 39.400 C 321.340 39.255,320.800 38.881,320.800 38.568 C 320.800 38.256,320.440 38.000,320.000 38.000 C 319.556 38.000,319.200 37.733,319.200 37.400 C 319.200 37.070,318.970 36.800,318.689 36.800 C 318.408 36.800,317.870 36.440,317.493 36.000 C 317.116 35.560,316.446 35.200,316.004 35.200 C 315.556 35.200,315.200 34.934,315.200 34.600 C 315.200 34.270,314.930 34.000,314.600 34.000 C 314.270 34.000,314.000 33.730,314.000 33.400 C 314.000 32.981,313.578 32.800,312.600 32.800 C 311.467 32.800,311.200 32.648,311.200 32.000 C 311.200 31.560,310.949 31.200,310.643 31.200 C 310.336 31.200,309.982 30.930,309.855 30.600 C 309.721 30.249,309.121 30.000,308.413 30.000 C 307.601 30.000,307.200 29.801,307.200 29.400 C 307.200 29.070,307.020 28.800,306.800 28.800 C 306.580 28.800,306.040 28.440,305.600 28.000 C 305.160 27.560,304.440 27.200,304.000 27.200 C 303.556 27.200,303.200 26.933,303.200 26.600 C 303.200 26.200,302.800 26.000,302.000 26.000 C 301.200 26.000,300.800 25.800,300.800 25.400 C 300.800 24.981,300.378 24.800,299.400 24.800 C 298.267 24.800,298.000 24.648,298.000 24.000 C 298.000 23.467,297.733 23.200,297.200 23.200 C 296.756 23.200,296.400 22.933,296.400 22.600 C 296.400 22.200,296.000 22.000,295.200 22.000 C 294.400 22.000,294.000 21.800,294.000 21.400 C 294.000 20.985,293.583 20.800,292.647 20.800 C 291.630 20.800,291.241 20.601,291.084 20.000 C 290.946 19.471,290.538 19.200,289.880 19.200 C 289.333 19.200,288.782 18.930,288.655 18.600 C 288.521 18.249,287.921 18.000,287.213 18.000 C 286.401 18.000,286.000 17.801,286.000 17.400 C 286.000 16.981,285.578 16.800,284.600 16.800 C 283.675 16.800,283.200 16.612,283.200 16.247 C 283.200 15.640,282.013 15.214,280.300 15.205 C 279.591 15.202,279.200 14.987,279.200 14.600 C 279.200 14.205,278.805 14.000,278.043 14.000 C 277.383 14.000,276.787 13.742,276.655 13.400 C 276.499 12.992,275.860 12.800,274.659 12.800 C 273.230 12.800,272.853 12.648,272.684 12.000 C 272.534 11.425,272.138 11.200,271.280 11.200 C 270.587 11.200,269.989 10.948,269.855 10.600 C 269.698 10.189,269.055 10.000,267.813 10.000 C 266.468 10.000,266.000 9.845,266.000 9.400 C 266.000 8.949,265.516 8.800,264.047 8.800 C 262.430 8.800,262.057 8.662,261.884 8.000 C 261.714 7.350,261.338 7.200,259.880 7.200 C 258.654 7.200,258.013 7.010,257.855 6.600 C 257.687 6.160,256.993 6.000,255.255 6.000 C 253.518 6.000,252.824 5.840,252.655 5.400 C 252.484 4.953,251.771 4.800,249.859 4.800 C 247.630 4.800,247.266 4.695,247.084 4.000 C 246.904 3.312,246.538 3.200,244.480 3.200 C 242.721 3.200,242.025 3.041,241.855 2.600 C 241.677 2.137,240.904 2.000,238.455 2.000 C 236.007 2.000,235.233 1.863,235.055 1.400 C 234.870 0.917,233.966 0.800,230.413 0.800 C 227.738 0.800,226.000 0.642,226.000 0.400 C 226.000 0.137,217.067 0.000,200.000 0.000 C 182.933 0.000,174.000 0.137,174.000 0.400 M292.745 92.534 C 293.042 92.891,293.223 97.020,293.294 105.034 L 293.400 117.000 305.715 117.200 C 316.076 117.368,318.090 117.495,318.409 118.000 C 319.231 119.303,318.886 135.526,318.026 135.986 C 317.542 136.245,312.751 136.400,305.226 136.400 L 293.200 136.400 293.200 148.520 C 293.200 157.413,293.072 160.768,292.720 161.120 C 292.377 161.463,289.811 161.600,283.710 161.600 L 275.180 161.600 274.774 160.531 C 274.529 159.886,274.388 154.935,274.419 148.031 L 274.471 136.600 262.255 136.400 C 254.318 136.270,249.888 136.049,249.608 135.769 C 248.998 135.157,248.979 118.462,249.588 117.851 C 249.894 117.545,253.960 117.336,262.238 117.200 L 274.437 117.000 274.518 104.885 C 274.588 94.613,274.691 92.713,275.200 92.392 C 276.194 91.763,292.213 91.893,292.745 92.534 M245.756 94.499 C 246.653 95.929,237.948 101.932,233.395 103.024 C 232.738 103.181,232.004 103.463,231.765 103.650 C 230.962 104.277,225.039 105.000,220.700 105.000 C 215.544 105.000,215.537 105.016,219.036 108.657 C 222.046 111.790,226.800 117.712,226.800 118.329 C 226.800 118.557,227.052 118.995,227.360 119.303 C 228.533 120.476,232.394 129.693,232.406 131.348 C 232.409 131.816,232.671 132.920,232.988 133.800 C 233.834 136.148,233.809 146.815,232.949 150.334 C 231.814 154.977,228.558 163.326,227.619 164.000 C 227.466 164.110,226.904 164.939,226.370 165.843 C 224.879 168.367,217.730 176.400,216.974 176.400 C 216.864 176.400,216.284 176.895,215.687 177.501 C 215.089 178.106,214.060 179.016,213.400 179.522 C 199.278 190.358,198.852 199.212,211.970 209.200 C 212.692 209.750,213.698 210.560,214.206 211.000 C 214.714 211.440,215.529 212.070,216.018 212.400 C 216.507 212.730,217.198 213.280,217.554 213.621 C 217.909 213.963,219.460 215.218,221.000 216.409 C 222.540 217.601,224.664 219.391,225.719 220.388 C 226.775 221.385,227.810 222.260,228.019 222.333 C 228.229 222.407,228.400 222.597,228.400 222.755 C 228.400 222.914,229.435 224.123,230.700 225.441 C 231.965 226.760,233.539 228.640,234.199 229.619 C 234.858 230.599,235.510 231.490,235.647 231.600 C 235.785 231.710,236.380 232.700,236.970 233.800 C 237.560 234.900,238.202 236.070,238.397 236.400 C 238.753 237.005,239.896 239.580,240.794 241.800 C 243.633 248.821,243.633 265.327,240.794 268.166 C 240.578 268.382,240.400 268.901,240.400 269.318 C 240.400 269.735,240.131 270.554,239.803 271.138 C 239.474 271.722,239.022 272.650,238.797 273.200 C 238.572 273.750,238.033 274.740,237.598 275.400 C 237.164 276.060,236.684 276.870,236.531 277.200 C 236.187 277.945,234.770 279.995,234.100 280.718 C 233.825 281.014,233.600 281.421,233.600 281.621 C 233.600 282.222,224.101 291.527,222.802 292.199 C 222.141 292.541,221.600 292.975,221.600 293.164 C 221.600 293.352,221.285 293.615,220.900 293.747 C 220.515 293.879,219.120 294.705,217.800 295.582 C 216.480 296.460,214.860 297.425,214.200 297.727 C 213.540 298.029,211.920 298.770,210.600 299.373 C 209.280 299.976,207.690 300.724,207.068 301.035 C 206.445 301.346,205.752 301.600,205.528 301.600 C 205.304 301.600,204.554 301.845,203.860 302.144 C 202.003 302.945,197.106 304.412,196.314 304.406 C 195.936 304.403,195.036 304.653,194.314 304.962 C 185.713 308.638,154.500 308.745,143.800 305.134 C 143.140 304.912,141.880 304.559,141.000 304.351 C 140.120 304.142,138.833 303.708,138.140 303.386 C 137.446 303.064,136.679 302.800,136.434 302.800 C 136.189 302.800,135.677 302.626,135.295 302.413 C 134.913 302.201,133.430 301.475,132.000 300.800 C 127.164 298.519,125.181 297.202,120.852 293.400 C 117.972 290.871,112.800 284.402,112.800 283.330 C 112.800 283.038,112.620 282.800,112.400 282.800 C 112.180 282.800,111.999 282.575,111.998 282.300 C 111.996 282.025,111.713 281.260,111.369 280.600 C 107.565 273.313,107.516 261.600,111.255 253.356 C 111.665 252.452,112.000 251.578,112.000 251.414 C 112.000 251.250,112.504 250.370,113.119 249.458 C 113.734 248.546,114.359 247.485,114.506 247.100 C 114.654 246.715,114.961 246.400,115.187 246.400 C 115.414 246.400,115.600 246.144,115.600 245.830 C 115.600 245.197,122.244 238.312,124.335 236.779 C 125.069 236.240,125.879 235.614,126.135 235.386 C 127.181 234.456,131.829 231.600,132.297 231.600 C 132.573 231.600,132.800 231.464,132.800 231.298 C 132.800 231.131,133.655 230.610,134.700 230.138 C 139.610 227.924,140.382 227.600,140.746 227.600 C 140.960 227.600,141.645 227.350,142.268 227.044 C 144.524 225.937,148.891 224.640,153.000 223.857 C 154.320 223.605,155.593 223.274,155.829 223.120 C 156.066 222.966,157.852 222.642,159.800 222.400 C 161.748 222.158,163.472 221.879,163.632 221.780 C 164.185 221.438,174.615 220.264,178.500 220.105 C 180.645 220.018,182.400 219.870,182.400 219.777 C 182.400 219.683,181.770 218.782,181.000 217.773 C 180.230 216.764,179.600 215.683,179.600 215.369 C 179.600 215.056,179.432 214.800,179.227 214.800 C 179.022 214.800,178.730 214.395,178.580 213.900 C 178.429 213.405,178.087 212.730,177.820 212.400 C 175.917 210.044,174.392 201.721,175.187 198.026 C 175.450 196.802,175.835 195.030,176.041 194.089 C 176.658 191.279,176.194 190.866,172.963 191.349 C 168.123 192.072,155.684 190.634,152.268 188.956 C 151.645 188.650,150.947 188.400,150.717 188.400 C 149.861 188.400,144.895 185.800,141.731 183.696 C 134.513 178.895,126.577 168.496,124.957 161.716 C 124.810 161.102,124.543 160.411,124.363 160.181 C 124.183 159.951,123.861 158.781,123.647 157.581 C 123.433 156.381,123.069 154.680,122.838 153.800 C 122.307 151.773,122.306 142.380,122.836 140.000 C 123.057 139.010,123.419 137.300,123.640 136.200 C 124.092 133.959,125.018 131.106,125.783 129.600 C 126.063 129.050,126.409 128.105,126.553 127.500 C 126.697 126.895,126.992 126.400,127.208 126.400 C 127.423 126.400,127.600 126.081,127.600 125.691 C 127.600 125.301,128.198 124.073,128.930 122.963 C 129.661 121.853,130.375 120.642,130.517 120.272 C 130.659 119.902,130.961 119.600,131.187 119.600 C 131.414 119.600,131.600 119.394,131.600 119.141 C 131.600 117.150,142.878 106.498,147.419 104.200 C 148.289 103.760,149.090 103.289,149.200 103.154 C 149.566 102.705,156.248 99.600,156.849 99.600 C 157.174 99.600,157.611 99.436,157.820 99.237 C 158.148 98.923,160.020 98.258,165.891 96.370 C 166.601 96.141,168.041 95.798,169.091 95.606 C 170.141 95.414,171.720 95.037,172.600 94.769 C 173.853 94.386,236.314 93.525,244.559 93.777 C 244.977 93.790,245.515 94.114,245.756 94.499 M167.254 105.005 C 166.514 105.332,165.681 105.600,165.404 105.600 C 164.209 105.600,160.024 107.855,156.916 110.172 C 155.152 111.488,152.240 115.161,151.345 117.200 C 151.201 117.530,150.749 118.555,150.341 119.478 C 149.933 120.401,149.600 121.503,149.600 121.928 C 149.600 122.352,149.330 123.465,149.000 124.400 C 148.169 126.755,148.150 141.010,148.973 144.306 C 149.288 145.568,149.745 147.500,149.989 148.600 C 150.825 152.373,151.229 153.802,151.814 155.060 C 152.136 155.754,152.400 156.587,152.400 156.911 C 152.400 157.236,152.670 157.726,153.000 158.000 C 153.330 158.274,153.600 158.754,153.600 159.066 C 153.600 159.719,156.203 164.687,157.040 165.631 C 157.348 165.979,157.600 166.386,157.600 166.536 C 157.600 166.686,158.230 167.705,159.000 168.800 C 159.770 169.895,160.400 170.912,160.400 171.060 C 160.400 171.606,166.768 177.563,168.060 178.225 C 168.797 178.603,169.490 179.031,169.600 179.177 C 169.899 179.573,173.503 181.035,175.973 181.761 C 180.422 183.070,188.644 182.294,192.688 180.185 C 193.300 179.866,193.939 179.604,194.110 179.602 C 194.870 179.596,199.661 176.225,200.867 174.848 C 205.854 169.152,207.340 164.221,207.328 153.400 C 207.319 145.117,206.577 140.444,204.121 133.200 C 202.513 128.457,199.392 122.294,196.600 118.344 C 194.314 115.111,187.873 108.400,187.056 108.400 C 186.937 108.400,186.066 107.888,185.120 107.263 C 181.210 104.677,170.933 103.378,167.254 105.005 M175.561 229.406 C 172.570 229.676,169.510 230.088,168.761 230.321 C 168.012 230.554,166.455 230.864,165.300 231.010 C 164.146 231.156,163.110 231.422,162.998 231.603 C 162.887 231.783,162.032 232.053,161.098 232.204 C 160.164 232.354,159.001 232.730,158.514 233.038 C 158.027 233.347,157.424 233.600,157.175 233.600 C 156.028 233.600,148.117 237.583,145.536 239.460 C 142.252 241.848,136.400 249.023,136.400 250.661 C 136.400 250.781,136.137 251.446,135.815 252.140 C 131.700 261.006,134.723 273.694,142.851 281.674 C 150.722 289.402,161.063 293.342,176.730 294.582 C 186.257 295.337,197.333 294.351,200.813 292.439 C 201.150 292.253,202.004 291.975,202.710 291.820 C 204.268 291.478,211.332 287.925,212.220 287.037 C 212.571 286.687,212.979 286.398,213.129 286.395 C 214.355 286.372,219.678 279.653,220.768 276.751 C 221.047 276.008,221.572 274.690,221.934 273.821 C 223.521 270.016,222.580 260.772,220.120 256.000 C 219.837 255.450,219.604 254.775,219.602 254.500 C 219.601 254.225,219.432 254.000,219.227 254.000 C 219.022 254.000,218.728 253.595,218.574 253.100 C 218.420 252.605,217.688 251.281,216.947 250.159 C 216.206 249.036,215.600 247.926,215.600 247.692 C 215.600 247.458,215.436 247.207,215.235 247.133 C 215.034 247.060,214.058 245.952,213.066 244.670 C 209.237 239.724,200.646 232.000,198.975 232.000 C 198.659 232.000,198.400 231.820,198.400 231.600 C 198.400 231.380,198.210 231.200,197.978 231.200 C 197.746 231.200,196.801 230.858,195.878 230.439 C 192.414 228.869,185.433 228.514,175.561 229.406 " stroke="none" fill="#131313" fill-rule="evenodd"></path><path id="path2" d="M275.851 93.144 C 275.250 93.807,275.181 95.138,275.212 105.375 C 275.237 113.665,275.116 117.020,274.775 117.431 C 274.386 117.899,272.251 118.000,262.725 118.000 C 255.509 118.000,250.856 118.156,250.374 118.414 C 249.594 118.831,249.136 133.124,249.843 134.967 C 250.057 135.525,251.519 135.600,262.163 135.600 C 271.023 135.600,274.368 135.728,274.720 136.080 C 275.071 136.431,275.200 139.659,275.200 148.106 C 275.200 155.301,275.356 159.944,275.614 160.426 C 276.121 161.373,290.999 161.641,291.920 160.720 C 292.272 160.368,292.400 157.061,292.400 148.334 C 292.400 136.972,292.435 136.409,293.174 136.014 C 293.657 135.755,298.382 135.600,305.760 135.600 C 319.910 135.600,318.400 136.664,318.400 126.688 C 318.400 117.032,319.844 118.000,305.442 118.000 C 298.283 118.000,293.656 117.844,293.174 117.586 C 292.436 117.191,292.400 116.631,292.400 105.560 C 292.400 98.320,292.244 93.656,291.986 93.174 C 291.362 92.008,276.903 91.981,275.851 93.144 M291.906 105.456 C 291.999 116.050,292.091 117.578,292.667 118.056 C 293.174 118.478,296.028 118.645,305.361 118.800 L 317.400 119.000 317.509 126.548 C 317.586 131.856,317.479 134.263,317.151 134.659 C 316.769 135.119,314.602 135.215,305.158 135.188 C 297.532 135.166,293.356 135.303,292.816 135.591 C 292.023 136.016,292.000 136.361,292.000 147.781 C 292.000 154.246,291.891 159.819,291.757 160.167 C 291.391 161.121,276.609 161.121,276.243 160.167 C 276.109 159.819,276.000 154.342,276.000 147.996 C 276.000 136.001,275.896 135.228,274.271 135.188 C 274.012 135.182,268.760 135.179,262.600 135.182 C 248.529 135.189,249.952 136.171,250.091 126.549 L 250.200 119.000 262.533 118.800 C 274.153 118.612,274.898 118.555,275.433 117.824 C 275.892 117.195,276.000 114.822,276.000 105.390 C 276.000 98.979,276.124 93.610,276.275 93.458 C 276.426 93.307,279.981 93.232,284.175 93.292 L 291.800 93.400 291.906 105.456 M213.067 94.795 C 230.264 94.908,244.428 95.095,244.544 95.210 C 244.797 95.463,239.570 99.117,237.600 100.063 C 234.456 101.574,232.409 102.400,231.809 102.400 C 231.460 102.400,230.505 102.684,229.687 103.031 C 228.743 103.431,226.080 103.785,222.400 104.001 L 216.600 104.341 222.400 104.199 C 230.556 104.000,236.548 101.999,242.500 97.489 C 246.905 94.152,249.204 94.384,212.867 94.495 L 181.800 94.590 213.067 94.795 M172.264 95.604 C 163.719 97.321,154.420 100.623,149.418 103.717 C 141.176 108.814,130.800 118.469,130.800 121.041 C 130.800 121.204,130.501 121.667,130.136 122.071 C 129.770 122.475,129.571 122.904,129.692 123.025 C 129.938 123.272,132.400 119.776,132.400 119.180 C 132.400 118.971,132.549 118.800,132.732 118.800 C 132.915 118.800,133.619 118.035,134.296 117.100 C 136.782 113.668,142.533 108.459,146.800 105.775 C 149.281 104.214,154.347 101.600,154.890 101.600 C 155.136 101.600,155.621 101.366,155.969 101.081 C 156.316 100.795,158.760 99.879,161.400 99.044 C 164.040 98.209,166.740 97.352,167.400 97.138 C 169.001 96.621,175.077 95.600,178.800 95.224 L 181.800 94.921 178.800 94.907 C 177.150 94.900,174.209 95.213,172.264 95.604 M170.800 103.138 C 170.470 103.334,169.265 103.614,168.123 103.758 C 161.183 104.637,152.989 110.820,150.045 117.400 C 146.734 124.798,146.099 138.914,148.649 148.400 C 149.798 152.675,150.910 156.021,151.253 156.233 C 151.444 156.351,151.600 156.724,151.600 157.063 C 151.600 157.401,152.365 159.198,153.300 161.056 C 155.814 166.051,156.099 166.581,156.383 166.800 C 156.526 166.910,157.069 167.720,157.591 168.600 C 158.113 169.480,158.823 170.497,159.170 170.860 C 159.516 171.224,160.250 172.124,160.799 172.860 C 162.959 175.758,166.655 178.899,169.400 180.173 C 170.060 180.479,170.738 180.869,170.907 181.039 C 173.570 183.718,184.968 184.196,191.400 181.897 C 194.384 180.831,196.400 179.880,196.400 179.539 C 196.400 179.353,196.587 179.200,196.816 179.200 C 198.046 179.200,203.226 174.237,204.465 171.870 C 205.962 169.014,206.733 167.213,207.005 165.942 C 207.163 165.204,207.449 164.405,207.640 164.166 C 208.728 162.810,208.966 148.353,207.976 143.800 C 207.784 142.920,207.353 140.882,207.017 139.270 C 206.681 137.659,206.214 136.039,205.979 135.670 C 205.625 135.116,205.586 135.173,205.752 136.000 C 206.120 137.840,206.840 140.976,207.495 143.600 C 209.320 150.906,208.078 163.401,204.872 170.000 C 199.294 181.480,182.023 186.652,170.400 180.324 C 148.045 168.153,139.407 123.239,156.785 109.531 C 165.227 102.872,177.785 101.702,185.520 106.854 C 186.466 107.484,187.333 108.000,187.447 108.000 C 188.102 108.000,192.461 112.288,194.766 115.200 C 199.480 121.156,200.941 123.663,203.857 130.800 C 204.836 133.197,205.573 134.571,205.574 134.000 C 205.574 133.450,205.310 132.651,204.987 132.224 C 204.664 131.796,204.400 131.189,204.400 130.873 C 204.400 130.557,203.734 128.926,202.921 127.249 C 197.392 115.852,190.432 108.185,182.368 104.608 C 179.638 103.398,171.993 102.426,170.800 103.138 M214.584 104.425 C 214.349 104.805,215.024 105.880,216.201 107.000 C 216.432 107.220,218.046 109.020,219.788 111.000 C 221.529 112.980,223.061 114.690,223.192 114.800 C 224.262 115.696,228.201 122.754,229.778 126.600 C 233.619 135.967,233.505 148.145,229.488 157.600 C 227.796 161.583,225.453 165.732,224.109 167.129 C 223.829 167.419,223.600 167.830,223.600 168.042 C 223.600 168.549,215.987 176.112,213.193 178.380 C 209.837 181.104,205.727 185.169,204.503 186.976 C 203.898 187.869,203.292 188.690,203.158 188.800 C 200.606 190.889,200.721 198.976,203.350 202.312 C 205.202 204.662,208.267 207.662,210.800 209.606 C 212.450 210.871,214.194 212.254,214.675 212.678 C 215.156 213.103,216.031 213.799,216.619 214.225 C 217.207 214.651,217.894 215.186,218.144 215.414 C 218.395 215.642,219.948 216.902,221.595 218.214 C 226.389 222.033,231.401 227.380,235.101 232.624 C 236.218 234.206,239.402 240.834,239.798 242.400 C 239.937 242.950,240.212 243.760,240.410 244.200 C 240.608 244.640,241.047 246.665,241.385 248.700 C 243.653 262.343,239.086 274.962,227.814 286.200 C 225.386 288.620,222.973 290.870,222.451 291.200 C 221.929 291.530,221.299 291.982,221.051 292.205 C 220.593 292.617,218.854 293.793,217.400 294.676 C 215.628 295.751,206.897 300.000,206.459 300.000 C 206.200 300.000,205.677 300.179,205.295 300.397 C 204.240 301.000,201.211 302.017,199.243 302.429 C 198.276 302.632,197.286 302.954,197.043 303.146 C 196.799 303.339,195.880 303.617,195.000 303.765 C 194.120 303.914,192.230 304.282,190.800 304.584 C 181.553 306.534,181.002 306.583,168.200 306.578 C 155.482 306.574,155.811 306.602,147.400 304.786 C 146.300 304.548,144.552 304.177,143.517 303.962 C 142.481 303.746,141.131 303.308,140.517 302.987 C 139.902 302.667,139.089 302.404,138.709 302.402 C 138.329 302.401,136.672 301.770,135.027 301.000 C 133.383 300.230,131.948 299.600,131.840 299.600 C 129.403 299.600,118.616 290.571,115.600 286.008 C 114.439 284.251,113.427 283.188,114.260 284.600 C 120.576 295.307,132.048 302.121,150.200 305.948 C 162.998 308.646,185.700 307.374,198.469 303.244 C 199.201 303.007,201.150 302.378,202.800 301.846 C 215.485 297.755,226.216 290.305,233.419 280.589 C 239.648 272.187,242.400 264.406,242.400 255.200 C 242.400 239.048,235.005 227.801,213.400 211.094 C 213.180 210.924,212.550 210.412,212.000 209.955 C 211.450 209.498,209.909 208.238,208.576 207.154 C 197.835 198.423,199.073 191.404,213.612 178.610 C 225.784 167.898,230.448 160.492,232.602 148.456 C 234.142 139.848,231.926 127.577,227.609 120.800 C 227.398 120.470,226.685 119.300,226.023 118.200 C 224.593 115.821,223.003 113.849,218.250 108.562 C 214.891 104.824,214.752 104.598,215.650 104.346 C 216.562 104.090,216.565 104.078,215.724 104.040 C 215.242 104.018,214.729 104.191,214.584 104.425 M127.603 126.898 C 117.054 149.408,125.607 175.391,147.119 186.187 C 153.472 189.375,158.889 190.525,168.200 190.663 C 172.380 190.724,175.929 190.781,176.086 190.787 C 177.013 190.828,177.221 192.527,176.544 194.521 C 174.334 201.020,176.281 210.074,181.442 217.301 C 183.441 220.099,183.309 220.928,180.900 220.705 C 179.026 220.531,170.205 221.439,162.800 222.567 C 134.287 226.911,115.972 239.214,110.238 257.875 C 109.887 259.016,109.615 260.366,109.632 260.875 C 109.650 261.384,109.932 260.810,110.258 259.600 C 110.775 257.684,111.776 254.725,112.559 252.800 C 114.327 248.450,123.344 237.600,125.191 237.600 C 125.416 237.600,125.600 237.454,125.600 237.276 C 125.600 236.817,135.032 230.800,135.751 230.800 C 135.887 230.800,137.123 230.273,138.499 229.629 C 143.948 227.078,153.541 224.471,162.200 223.187 C 163.740 222.958,166.056 222.586,167.348 222.360 C 170.868 221.744,179.193 221.135,180.420 221.404 C 183.637 222.111,184.326 220.694,182.199 217.744 C 181.429 216.675,180.608 215.354,180.374 214.808 C 180.141 214.263,179.807 213.723,179.632 213.608 C 179.228 213.344,177.600 209.660,177.600 209.011 C 177.600 208.742,177.298 207.918,176.929 207.178 C 175.981 205.277,175.990 196.753,176.942 194.911 C 178.986 190.960,177.888 190.251,169.881 190.351 C 158.202 190.496,148.701 187.711,140.857 181.843 C 137.832 179.580,133.600 175.472,133.600 174.800 C 133.600 174.580,133.454 174.400,133.276 174.400 C 132.270 174.400,125.600 162.139,125.600 160.288 C 125.600 159.964,125.341 159.077,125.023 158.318 C 122.873 153.172,123.882 133.702,126.438 131.020 C 126.637 130.811,126.801 130.361,126.802 130.020 C 126.803 129.679,127.439 128.161,128.216 126.648 C 128.993 125.134,129.534 123.801,129.418 123.685 C 129.302 123.569,128.485 125.015,127.603 126.898 M178.200 228.004 C 173.191 228.355,166.741 229.318,165.074 229.964 C 164.455 230.204,163.555 230.401,163.074 230.402 C 162.593 230.404,161.684 230.674,161.054 231.002 C 160.424 231.331,159.614 231.606,159.254 231.614 C 158.894 231.621,157.880 231.975,157.000 232.400 C 156.120 232.825,155.233 233.179,155.029 233.186 C 154.639 233.201,148.768 236.064,147.400 236.907 C 142.418 239.978,135.600 247.713,135.600 250.294 C 135.600 250.572,135.454 250.800,135.275 250.800 C 134.381 250.800,133.101 257.260,133.120 261.670 C 133.140 266.070,134.411 272.400,135.275 272.400 C 135.454 272.400,135.600 272.628,135.600 272.906 C 135.600 274.306,141.021 282.053,142.866 283.289 C 143.380 283.634,144.413 284.471,145.163 285.149 C 147.220 287.012,151.004 289.155,156.600 291.625 C 159.642 292.968,164.711 294.320,167.800 294.612 C 169.234 294.748,168.808 294.579,166.296 294.016 C 138.910 287.873,125.980 266.682,137.665 247.092 C 139.999 243.179,149.943 234.800,152.252 234.800 C 152.377 234.800,153.046 234.555,153.740 234.256 C 156.589 233.027,157.527 232.672,160.200 231.815 C 172.277 227.939,188.803 227.001,195.800 229.794 C 203.239 232.764,215.410 244.530,218.808 252.037 C 219.047 252.567,219.581 253.630,219.992 254.400 C 228.724 270.726,220.548 287.034,200.563 293.150 C 193.391 295.345,185.834 296.225,179.400 295.614 C 171.624 294.875,169.472 294.766,171.600 295.218 C 187.068 298.508,206.891 294.082,215.869 285.334 C 218.084 283.176,220.871 279.498,221.428 278.000 C 221.551 277.670,221.893 276.860,222.189 276.200 C 224.396 271.278,224.484 263.770,222.395 258.600 C 220.902 254.905,217.363 248.351,216.708 248.067 C 216.538 247.993,216.400 247.759,216.400 247.545 C 216.400 246.871,211.951 241.519,208.798 238.400 C 199.272 228.978,193.294 226.948,178.200 228.004 M109.402 267.800 C 109.493 272.399,109.702 274.360,110.297 276.200 C 111.346 279.442,113.301 283.496,113.512 282.865 C 113.605 282.584,113.394 282.035,113.041 281.645 C 112.688 281.256,112.400 280.726,112.400 280.467 C 112.400 280.209,112.040 279.325,111.600 278.504 C 111.160 277.684,110.800 276.592,110.800 276.080 C 110.800 275.567,110.584 274.754,110.320 274.274 C 110.055 273.790,109.716 270.808,109.561 267.600 L 109.283 261.800 109.402 267.800 " stroke="none" fill="#8c8c8c" fill-rule="evenodd"></path><path id="path3" d="M179.500 94.682 C 179.995 94.778,180.805 94.778,181.300 94.682 C 181.795 94.587,181.390 94.509,180.400 94.509 C 179.410 94.509,179.005 94.587,179.500 94.682 M220.305 104.683 C 220.802 104.779,221.522 104.775,221.905 104.675 C 222.287 104.575,221.880 104.496,221.000 104.501 C 220.120 104.505,219.807 104.587,220.305 104.683 M218.400 108.925 C 218.400 108.994,218.985 109.579,219.700 110.225 L 221.000 111.400 219.825 110.100 C 218.730 108.888,218.400 108.616,218.400 108.925 M191.600 111.800 C 192.346 112.570,193.047 113.200,193.157 113.200 C 193.267 113.200,192.746 112.570,192.000 111.800 C 191.254 111.030,190.553 110.400,190.443 110.400 C 190.333 110.400,190.854 111.030,191.600 111.800 M147.753 134.200 C 147.753 136.840,147.818 137.868,147.897 136.484 C 147.975 135.101,147.974 132.941,147.895 131.684 C 147.816 130.428,147.752 131.560,147.753 134.200 M256.725 135.899 C 260.093 135.966,265.493 135.966,268.725 135.899 C 271.956 135.832,269.200 135.777,262.600 135.777 C 256.000 135.777,253.356 135.832,256.725 135.899 M299.300 135.899 C 302.545 135.966,307.855 135.966,311.100 135.899 C 314.345 135.832,311.690 135.777,305.200 135.777 C 298.710 135.777,296.055 135.832,299.300 135.899 M208.142 153.000 C 208.141 154.980,208.208 155.840,208.292 154.912 C 208.376 153.984,208.377 152.364,208.295 151.312 C 208.212 150.260,208.143 151.020,208.142 153.000 M181.100 183.082 C 181.595 183.178,182.405 183.178,182.900 183.082 C 183.395 182.987,182.990 182.909,182.000 182.909 C 181.010 182.909,180.605 182.987,181.100 183.082 M168.291 191.089 C 169.001 191.177,170.261 191.179,171.091 191.092 C 171.921 191.005,171.340 190.933,169.800 190.931 C 168.260 190.929,167.581 191.000,168.291 191.089 M183.500 228.289 C 184.215 228.378,185.385 228.378,186.100 228.289 C 186.815 228.201,186.230 228.128,184.800 228.128 C 183.370 228.128,182.785 228.201,183.500 228.289 M242.534 255.200 C 242.534 256.850,242.605 257.525,242.691 256.700 C 242.778 255.875,242.778 254.525,242.691 253.700 C 242.605 252.875,242.534 253.550,242.534 255.200 M108.934 266.800 C 108.934 268.450,109.005 269.125,109.091 268.300 C 109.178 267.475,109.178 266.125,109.091 265.300 C 109.005 264.475,108.934 265.150,108.934 266.800 M182.707 295.890 C 183.426 295.979,184.506 295.977,185.107 295.886 C 185.708 295.795,185.120 295.722,183.800 295.724 C 182.480 295.726,181.988 295.801,182.707 295.890 M161.700 307.476 C 162.085 307.576,162.715 307.576,163.100 307.476 C 163.485 307.375,163.170 307.293,162.400 307.293 C 161.630 307.293,161.315 307.375,161.700 307.476 M173.300 307.476 C 173.685 307.576,174.315 307.576,174.700 307.476 C 175.085 307.375,174.770 307.293,174.000 307.293 C 173.230 307.293,172.915 307.375,173.300 307.476 " stroke="none" fill="#848484" fill-rule="evenodd"></path><path id="path4" d="M275.200 92.392 C 274.691 92.713,274.588 94.613,274.518 104.885 L 274.437 117.000 262.238 117.200 C 253.960 117.336,249.894 117.545,249.588 117.851 C 248.979 118.462,248.998 135.157,249.608 135.769 C 249.888 136.049,254.318 136.270,262.255 136.400 L 274.471 136.600 274.419 148.031 C 274.388 154.935,274.529 159.886,274.774 160.531 L 275.180 161.600 283.710 161.600 C 289.811 161.600,292.377 161.463,292.720 161.120 C 293.072 160.768,293.200 157.413,293.200 148.520 L 293.200 136.400 305.226 136.400 C 312.751 136.400,317.542 136.245,318.026 135.986 C 318.886 135.526,319.231 119.303,318.409 118.000 C 318.090 117.495,316.076 117.368,305.715 117.200 L 293.400 117.000 293.294 105.034 C 293.223 97.020,293.042 92.891,292.745 92.534 C 292.213 91.893,276.194 91.763,275.200 92.392 M292.187 93.100 C 292.337 93.485,292.439 98.960,292.414 105.267 L 292.369 116.733 293.274 117.367 C 294.048 117.909,295.845 118.000,305.809 118.000 C 314.322 118.000,317.569 118.129,317.920 118.480 C 318.510 119.070,318.591 134.279,318.009 135.200 C 317.690 135.705,315.639 135.835,305.115 136.020 C 298.232 136.140,292.549 136.275,292.486 136.320 C 292.423 136.364,292.392 141.794,292.418 148.386 C 292.443 154.979,292.349 160.559,292.208 160.786 C 291.906 161.276,276.468 161.358,275.706 160.874 C 275.336 160.639,275.185 157.513,275.106 148.380 L 275.000 136.200 262.719 136.000 C 254.786 135.871,250.287 135.648,250.011 135.372 C 249.728 135.088,249.620 132.121,249.692 126.572 L 249.800 118.200 262.000 118.097 C 272.900 118.006,274.253 117.923,274.700 117.321 C 275.073 116.818,275.200 113.692,275.200 105.004 C 275.200 96.481,275.329 93.231,275.680 92.880 C 276.545 92.015,291.844 92.219,292.187 93.100 M211.600 93.994 L 179.400 94.207 212.020 94.304 C 246.542 94.406,246.616 94.410,244.471 96.189 C 237.183 102.232,227.726 105.232,218.229 104.514 C 214.397 104.224,214.401 104.268,218.643 108.867 C 225.962 116.803,230.474 124.476,232.127 131.800 C 232.266 132.416,232.318 132.358,232.354 131.548 C 232.429 129.827,228.673 120.616,227.360 119.303 C 227.052 118.995,226.800 118.557,226.800 118.329 C 226.800 117.712,222.046 111.790,219.036 108.657 C 215.537 105.016,215.544 105.000,220.700 105.000 C 225.039 105.000,230.962 104.277,231.765 103.650 C 232.004 103.463,232.738 103.181,233.395 103.024 C 239.687 101.515,248.956 93.848,244.559 93.790 C 244.142 93.784,229.310 93.876,211.600 93.994 M172.400 94.864 C 171.630 95.074,170.141 95.406,169.091 95.600 C 168.041 95.795,166.601 96.141,165.891 96.370 C 160.020 98.258,158.148 98.923,157.820 99.237 C 157.611 99.436,157.174 99.600,156.849 99.600 C 156.248 99.600,149.566 102.705,149.200 103.154 C 149.090 103.289,148.289 103.760,147.419 104.200 C 142.939 106.467,131.600 117.146,131.600 119.098 C 131.600 119.327,131.330 119.618,131.000 119.745 C 130.670 119.871,130.400 120.145,130.400 120.353 C 130.400 120.560,129.770 121.687,129.000 122.856 C 128.230 124.025,127.601 125.256,127.602 125.591 C 127.603 125.926,128.359 124.942,129.282 123.404 C 135.878 112.410,145.785 104.103,157.600 99.659 C 163.908 97.287,172.642 95.087,177.400 94.674 C 178.302 94.595,177.866 94.523,176.400 94.508 C 174.970 94.494,173.170 94.654,172.400 94.864 M170.600 103.868 C 162.671 104.844,155.202 109.502,151.673 115.673 C 150.340 118.004,148.382 123.605,148.430 124.951 C 148.470 126.064,149.526 123.401,149.570 122.078 C 149.586 121.571,149.933 120.401,150.341 119.478 C 150.749 118.555,151.201 117.530,151.345 117.200 C 152.240 115.161,155.152 111.488,156.916 110.172 C 160.021 107.857,164.209 105.600,165.401 105.600 C 165.677 105.600,166.549 105.330,167.338 105.000 C 168.331 104.585,170.353 104.383,173.887 104.347 C 177.914 104.304,178.575 104.227,177.000 103.982 C 174.914 103.657,172.642 103.616,170.600 103.868 M179.600 104.806 C 179.930 105.023,180.920 105.399,181.800 105.641 C 182.680 105.884,184.174 106.604,185.120 107.241 C 186.066 107.878,186.937 108.400,187.056 108.400 C 187.503 108.400,191.306 112.034,193.800 114.844 C 196.742 118.159,198.531 120.899,200.823 125.600 C 203.438 130.964,204.142 132.784,205.428 137.511 C 205.804 138.892,206.202 139.932,206.312 139.822 C 206.546 139.587,205.479 135.542,204.353 132.400 C 199.940 120.080,191.678 109.689,183.099 105.666 C 180.504 104.450,178.191 103.881,179.600 104.806 M148.169 134.200 C 148.170 138.820,148.228 140.655,148.299 138.278 C 148.370 135.901,148.369 132.121,148.298 129.878 C 148.227 127.635,148.169 129.580,148.169 134.200 M126.553 127.500 C 126.409 128.105,126.063 129.050,125.783 129.600 C 125.018 131.106,124.092 133.959,123.640 136.200 C 123.419 137.300,123.057 139.010,122.836 140.000 C 122.306 142.380,122.307 151.773,122.838 153.800 C 123.069 154.680,123.433 156.381,123.647 157.581 C 123.861 158.781,124.183 159.951,124.363 160.181 C 124.543 160.411,124.810 161.102,124.957 161.716 C 126.577 168.496,134.513 178.895,141.731 183.696 C 144.895 185.800,149.861 188.400,150.717 188.400 C 150.947 188.400,151.645 188.650,152.268 188.956 C 155.613 190.599,167.999 192.056,172.800 191.371 C 175.093 191.044,174.620 190.992,168.800 190.934 C 156.475 190.810,146.742 187.635,139.000 181.211 C 137.387 179.872,132.001 174.269,132.001 173.929 C 132.000 173.779,131.763 173.419,131.473 173.129 C 123.310 164.936,120.495 142.805,126.014 130.200 C 127.129 127.653,127.516 126.400,127.187 126.400 C 126.983 126.400,126.697 126.895,126.553 127.500 M232.607 134.000 C 235.560 150.572,229.376 165.323,214.000 178.387 C 197.559 192.356,197.522 198.427,213.799 211.226 C 221.808 217.525,225.816 220.945,228.743 223.979 C 231.142 226.466,235.995 232.530,236.009 233.057 C 236.020 233.477,237.579 235.512,237.591 235.123 C 237.601 234.825,235.979 231.931,235.617 231.600 C 235.496 231.490,234.858 230.599,234.199 229.619 C 233.539 228.640,231.965 226.760,230.700 225.441 C 229.435 224.123,228.400 222.914,228.400 222.755 C 228.400 222.597,228.229 222.407,228.019 222.333 C 227.810 222.260,226.775 221.385,225.719 220.388 C 224.664 219.391,222.540 217.601,221.000 216.409 C 219.460 215.218,217.909 213.963,217.554 213.621 C 217.198 213.280,216.507 212.730,216.018 212.400 C 215.529 212.070,214.714 211.440,214.206 211.000 C 213.698 210.560,212.692 209.750,211.970 209.200 C 198.852 199.212,199.278 190.358,213.400 179.522 C 214.060 179.016,215.089 178.106,215.687 177.501 C 216.284 176.895,216.864 176.400,216.974 176.400 C 217.730 176.400,224.879 168.367,226.370 165.843 C 226.904 164.939,227.466 164.110,227.619 164.000 C 228.585 163.306,231.856 154.871,232.988 150.153 C 233.831 146.638,233.754 134.742,232.879 133.400 C 232.412 132.684,232.383 132.747,232.607 134.000 M206.456 141.600 C 206.435 142.370,206.626 143.720,206.880 144.600 C 207.133 145.480,207.452 149.350,207.588 153.200 L 207.836 160.200 207.918 153.755 C 207.992 147.936,207.841 146.295,206.802 141.600 L 206.492 140.200 206.456 141.600 M148.442 143.468 C 148.396 144.412,149.653 149.911,150.574 152.800 C 153.984 163.496,160.868 173.824,167.728 178.536 C 178.298 185.798,194.588 183.506,202.432 173.655 C 204.944 170.500,208.098 162.420,207.490 160.700 C 207.285 160.121,206.406 162.989,206.402 164.249 C 206.399 165.485,204.033 170.931,202.800 172.542 C 200.300 175.807,196.292 178.965,193.600 179.791 C 193.050 179.960,192.420 180.236,192.200 180.406 C 189.917 182.163,180.122 182.981,175.973 181.761 C 173.503 181.035,169.899 179.573,169.600 179.177 C 169.490 179.031,168.797 178.603,168.060 178.225 C 166.768 177.563,160.400 171.606,160.400 171.060 C 160.400 170.912,159.770 169.895,159.000 168.800 C 158.230 167.705,157.600 166.686,157.600 166.536 C 157.600 166.386,157.348 165.979,157.040 165.631 C 156.203 164.687,153.600 159.719,153.600 159.066 C 153.600 158.754,153.330 158.274,153.000 158.000 C 152.670 157.726,152.400 157.236,152.400 156.911 C 152.400 156.587,152.136 155.754,151.814 155.060 C 151.215 153.771,150.652 151.743,149.912 148.200 C 149.224 144.907,148.486 142.535,148.442 143.468 M175.960 191.526 C 176.392 192.333,176.177 194.104,175.170 198.046 C 174.689 199.927,174.706 203.236,175.200 204.000 C 175.469 204.416,175.590 203.669,175.594 201.555 C 175.597 199.880,175.809 197.540,176.064 196.355 C 176.716 193.324,176.715 191.113,176.061 190.891 C 175.636 190.746,175.615 190.880,175.960 191.526 M175.654 205.698 C 175.592 206.951,177.051 211.498,177.804 212.400 C 178.080 212.730,178.429 213.405,178.580 213.900 C 178.730 214.395,179.022 214.800,179.227 214.800 C 179.432 214.800,179.600 215.056,179.600 215.369 C 179.600 215.683,180.230 216.764,181.000 217.773 C 181.770 218.782,182.400 219.683,182.400 219.777 C 182.400 219.870,180.645 220.018,178.500 220.105 C 174.615 220.264,164.185 221.438,163.632 221.780 C 163.472 221.879,161.748 222.158,159.800 222.400 C 157.852 222.642,156.066 222.966,155.829 223.120 C 155.593 223.274,154.320 223.605,153.000 223.857 C 149.321 224.558,146.284 225.395,145.400 225.952 C 144.463 226.541,143.964 226.636,150.000 225.076 C 159.776 222.548,176.593 220.060,180.454 220.571 C 181.903 220.762,182.359 220.683,182.542 220.208 C 182.801 219.531,182.476 218.400,182.021 218.400 C 181.860 218.400,181.518 217.995,181.260 217.500 C 181.002 217.005,180.444 216.060,180.019 215.400 C 178.338 212.789,176.216 207.780,175.869 205.600 C 175.714 204.629,175.707 204.632,175.654 205.698 M142.176 226.987 C 141.749 227.310,141.165 227.580,140.878 227.587 C 140.391 227.599,139.674 227.895,134.700 230.138 C 133.655 230.610,132.800 231.131,132.800 231.298 C 132.800 231.464,132.573 231.600,132.297 231.600 C 131.829 231.600,127.181 234.456,126.135 235.386 C 125.879 235.614,125.069 236.240,124.335 236.779 C 122.318 238.257,115.600 245.186,115.600 245.788 C 115.600 246.077,115.330 246.418,115.000 246.545 C 114.670 246.671,114.400 246.952,114.400 247.167 C 114.400 247.383,113.883 248.334,113.250 249.280 C 112.618 250.226,111.964 251.450,111.796 252.000 C 111.629 252.550,111.246 253.355,110.946 253.789 C 110.646 254.223,110.404 254.943,110.409 255.389 C 110.416 255.969,110.602 255.801,111.064 254.800 C 116.240 243.582,123.624 236.287,136.028 230.133 C 138.393 228.960,140.505 228.000,140.721 228.000 C 140.936 228.000,141.897 227.644,142.856 227.209 C 143.982 226.698,144.308 226.414,143.776 226.409 C 143.324 226.404,142.604 226.664,142.176 226.987 M174.400 229.000 C 170.400 229.662,172.516 229.719,179.457 229.135 C 186.103 228.577,192.981 229.116,195.841 230.419 C 196.785 230.848,197.746 231.200,197.978 231.200 C 198.210 231.200,198.400 231.380,198.400 231.600 C 198.400 231.820,198.659 232.000,198.975 232.000 C 200.646 232.000,209.237 239.724,213.066 244.670 C 214.058 245.952,215.072 247.073,215.320 247.162 C 217.145 247.817,207.784 237.728,203.600 234.531 C 195.964 228.695,186.768 226.953,174.400 229.000 M166.200 230.265 C 150.237 234.161,140.912 240.317,136.308 250.000 C 128.790 265.809,137.267 283.071,156.400 290.912 C 160.535 292.607,171.316 295.172,170.367 294.236 C 170.275 294.145,168.760 293.785,167.000 293.435 C 149.248 289.903,137.343 280.111,134.615 266.800 C 133.619 261.938,134.123 255.786,135.815 252.140 C 136.137 251.446,136.400 250.781,136.400 250.661 C 136.400 249.023,142.252 241.848,145.536 239.460 C 148.117 237.583,156.028 233.600,157.175 233.600 C 157.424 233.600,158.027 233.347,158.514 233.038 C 159.001 232.730,160.164 232.354,161.098 232.204 C 162.032 232.053,162.887 231.783,162.998 231.603 C 163.110 231.422,164.146 231.149,165.300 230.995 C 166.455 230.841,168.300 230.476,169.400 230.184 C 172.358 229.398,169.447 229.473,166.200 230.265 M237.652 235.800 C 237.753 236.020,238.251 237.100,238.760 238.200 C 242.909 247.168,243.890 261.026,240.785 266.827 C 240.269 267.792,240.275 268.685,240.794 268.166 C 244.279 264.681,243.430 246.208,239.435 238.600 C 239.088 237.940,238.804 237.197,238.802 236.949 C 238.801 236.701,238.501 236.251,238.135 235.949 C 237.769 235.647,237.552 235.580,237.652 235.800 M215.600 247.859 C 215.600 248.001,216.206 249.036,216.947 250.159 C 217.688 251.281,218.420 252.605,218.574 253.100 C 218.728 253.595,219.022 254.000,219.227 254.000 C 219.432 254.000,219.601 254.225,219.602 254.500 C 219.604 254.775,219.837 255.450,220.120 256.000 C 221.958 259.566,222.585 262.565,222.575 267.746 C 222.564 272.733,222.579 272.825,223.065 270.746 C 224.285 265.522,222.342 258.145,217.759 250.596 C 216.063 247.803,215.600 247.216,215.600 247.859 M109.666 257.600 C 107.547 263.494,108.391 274.896,111.369 280.600 C 111.713 281.260,111.996 282.025,111.998 282.300 C 111.999 282.575,112.180 282.800,112.400 282.800 C 112.620 282.800,112.800 283.038,112.800 283.330 C 112.800 284.402,117.972 290.871,120.852 293.400 C 125.181 297.202,127.164 298.519,132.000 300.800 C 133.430 301.475,134.913 302.201,135.295 302.413 C 135.677 302.626,136.217 302.801,136.495 302.802 C 136.773 302.804,137.503 303.067,138.117 303.388 C 138.731 303.708,139.901 304.091,140.717 304.239 C 141.533 304.386,142.686 304.753,143.280 305.053 C 143.874 305.354,144.864 305.591,145.480 305.581 C 146.743 305.559,145.021 304.843,141.800 304.049 C 131.491 301.510,120.133 293.907,114.924 286.059 C 109.438 277.794,107.015 263.977,110.056 258.296 C 110.273 257.890,110.387 257.253,110.310 256.879 C 110.217 256.432,109.997 256.679,109.666 257.600 M239.441 270.707 C 234.869 282.109,222.235 294.207,209.434 299.441 C 208.095 299.988,206.640 300.605,206.200 300.812 C 205.355 301.208,197.563 303.780,196.200 304.112 L 195.400 304.307 196.200 304.359 C 197.048 304.415,201.744 303.056,203.860 302.144 C 204.554 301.845,205.304 301.600,205.528 301.600 C 205.752 301.600,206.445 301.346,207.068 301.035 C 207.690 300.724,209.280 299.976,210.600 299.373 C 211.920 298.770,213.540 298.029,214.200 297.727 C 214.860 297.425,216.480 296.460,217.800 295.582 C 219.120 294.705,220.515 293.879,220.900 293.747 C 221.285 293.615,221.600 293.352,221.600 293.164 C 221.600 292.975,222.141 292.541,222.802 292.199 C 224.101 291.527,233.600 282.222,233.600 281.621 C 233.600 281.421,233.825 281.014,234.100 280.718 C 234.770 279.995,236.187 277.945,236.531 277.200 C 236.684 276.870,237.164 276.060,237.598 275.400 C 238.033 274.740,238.576 273.750,238.805 273.200 C 239.034 272.650,239.511 271.645,239.866 270.966 C 240.221 270.287,240.441 269.526,240.355 269.273 C 240.270 269.021,239.858 269.666,239.441 270.707 M221.692 274.300 C 221.422 275.015,220.989 276.163,220.730 276.851 C 219.674 279.664,214.331 286.373,213.129 286.395 C 212.979 286.398,212.571 286.687,212.220 287.037 C 211.321 287.936,204.254 291.482,202.697 291.815 C 201.984 291.968,201.220 292.231,201.000 292.399 C 200.780 292.568,199.700 292.896,198.600 293.128 C 195.859 293.706,194.262 294.339,195.454 294.375 C 198.077 294.452,208.498 290.195,212.334 287.479 C 217.187 284.043,222.819 276.240,222.313 273.655 C 222.230 273.233,222.009 273.463,221.692 274.300 M174.800 294.992 C 180.142 295.698,187.736 295.697,191.600 294.990 L 194.600 294.441 190.200 294.719 C 184.780 295.062,183.261 295.061,176.200 294.713 L 170.600 294.436 174.800 294.992 M192.200 305.011 L 190.600 305.539 192.000 305.555 C 192.770 305.564,193.850 305.314,194.400 305.000 C 195.726 304.242,194.515 304.248,192.200 305.011 M147.800 306.060 C 154.800 308.340,180.111 308.414,188.600 306.179 C 191.290 305.471,189.892 305.470,185.657 306.178 C 174.583 308.028,157.031 307.936,150.000 305.992 C 148.013 305.442,146.087 305.502,147.800 306.060 " stroke="none" fill="#676767" fill-rule="evenodd"></path></g></svg>