<svg id="svg" version="1.1" xmlns="http://www.w3.org/2000/svg" xmlns:xlink="http://www.w3.org/1999/xlink" width="400" height="400" viewBox="0, 0, 400,400"><g id="svgg"><path id="path0" d="M189.400 19.600 C 189.258 19.831,187.129 20.000,184.376 20.000 C 181.459 20.000,179.600 20.156,179.600 20.400 C 179.600 20.633,178.267 20.800,176.400 20.800 C 174.533 20.800,173.200 20.967,173.200 21.200 C 173.200 21.422,172.133 21.600,170.800 21.600 C 169.467 21.600,168.400 21.778,168.400 22.000 C 168.400 22.220,167.410 22.400,166.200 22.400 C 164.990 22.400,164.000 22.580,164.000 22.800 C 164.000 23.020,163.190 23.200,162.200 23.200 C 161.210 23.200,160.400 23.380,160.400 23.600 C 160.400 23.820,159.590 24.000,158.600 24.000 C 157.610 24.000,156.800 24.180,156.800 24.400 C 156.800 24.620,156.191 24.800,155.446 24.800 C 154.701 24.800,153.126 25.084,151.946 25.431 C 150.766 25.778,149.080 26.246,148.200 26.470 C 147.320 26.694,146.287 27.040,145.905 27.239 C 145.523 27.438,144.859 27.600,144.429 27.600 C 143.999 27.600,143.536 27.780,143.400 28.000 C 143.264 28.220,142.713 28.400,142.176 28.400 C 141.639 28.400,141.200 28.580,141.200 28.800 C 141.200 29.020,140.660 29.200,140.000 29.200 C 139.340 29.200,138.800 29.380,138.800 29.600 C 138.800 29.820,138.260 30.000,137.600 30.000 C 136.940 30.000,136.400 30.180,136.400 30.400 C 136.400 30.620,135.961 30.800,135.424 30.800 C 134.887 30.800,134.336 30.980,134.200 31.200 C 134.064 31.420,133.603 31.600,133.176 31.600 C 132.749 31.600,132.400 31.780,132.400 32.000 C 132.400 32.220,131.961 32.400,131.424 32.400 C 130.887 32.400,130.336 32.580,130.200 32.800 C 130.064 33.020,129.603 33.200,129.176 33.200 C 128.749 33.200,128.400 33.380,128.400 33.600 C 128.400 33.820,128.040 34.000,127.600 34.000 C 127.160 34.000,126.800 34.180,126.800 34.400 C 126.800 34.620,126.350 34.800,125.800 34.800 C 125.250 34.800,124.800 34.980,124.800 35.200 C 124.800 35.420,124.440 35.600,124.000 35.600 C 123.560 35.600,123.200 35.780,123.200 36.000 C 123.200 36.220,122.840 36.400,122.400 36.400 C 121.960 36.400,121.600 36.580,121.600 36.800 C 121.600 37.020,121.240 37.200,120.800 37.200 C 120.360 37.200,120.000 37.380,120.000 37.600 C 120.000 37.820,119.640 38.000,119.200 38.000 C 118.760 38.000,118.400 38.180,118.400 38.400 C 118.400 38.620,118.040 38.800,117.600 38.800 C 117.160 38.800,116.800 38.980,116.800 39.200 C 116.800 39.420,116.440 39.600,116.000 39.600 C 115.560 39.600,115.200 39.780,115.200 40.000 C 115.200 40.220,114.840 40.400,114.400 40.400 C 113.960 40.400,113.600 40.580,113.600 40.800 C 113.600 41.020,113.240 41.200,112.800 41.200 C 112.360 41.200,111.998 41.335,111.996 41.500 C 111.994 41.665,111.184 42.155,110.196 42.590 C 109.208 43.024,108.400 43.519,108.400 43.690 C 108.400 43.860,108.040 44.000,107.600 44.000 C 107.160 44.000,106.800 44.158,106.800 44.351 C 106.800 44.545,106.260 44.927,105.600 45.200 C 104.940 45.473,104.400 45.855,104.400 46.049 C 104.400 46.242,104.164 46.400,103.875 46.400 C 103.587 46.400,102.964 46.760,102.492 47.200 C 102.020 47.640,101.396 48.000,101.105 48.000 C 100.814 48.000,100.317 48.360,100.000 48.800 C 99.683 49.240,99.143 49.600,98.800 49.600 C 98.457 49.600,97.917 49.960,97.600 50.400 C 97.283 50.840,96.838 51.203,96.612 51.207 C 96.177 51.215,94.087 52.789,92.506 54.300 C 91.988 54.795,91.392 55.200,91.182 55.200 C 90.973 55.200,90.059 55.920,89.152 56.800 C 88.245 57.680,87.293 58.400,87.035 58.400 C 86.777 58.400,85.921 59.009,85.133 59.752 C 84.344 60.496,83.374 61.287,82.976 61.510 C 80.721 62.772,62.778 80.710,61.517 82.963 C 61.290 83.368,60.496 84.344,59.752 85.133 C 59.009 85.921,58.400 86.777,58.400 87.035 C 58.400 87.293,57.680 88.245,56.800 89.152 C 55.920 90.059,55.200 90.973,55.200 91.182 C 55.200 91.392,54.795 91.988,54.300 92.506 C 52.789 94.087,51.215 96.177,51.207 96.612 C 51.203 96.838,50.840 97.283,50.400 97.600 C 49.960 97.917,49.600 98.457,49.600 98.800 C 49.600 99.143,49.240 99.683,48.800 100.000 C 48.360 100.317,48.000 100.814,48.000 101.105 C 48.000 101.396,47.640 102.020,47.200 102.492 C 46.760 102.964,46.400 103.587,46.400 103.875 C 46.400 104.164,46.242 104.400,46.049 104.400 C 45.855 104.400,45.473 104.940,45.200 105.600 C 44.927 106.260,44.545 106.800,44.351 106.800 C 44.158 106.800,44.000 107.160,44.000 107.600 C 44.000 108.040,43.860 108.400,43.690 108.400 C 43.519 108.400,43.024 109.208,42.590 110.196 C 42.155 111.184,41.665 111.994,41.500 111.996 C 41.335 111.998,41.200 112.360,41.200 112.800 C 41.200 113.240,41.020 113.600,40.800 113.600 C 40.580 113.600,40.400 113.960,40.400 114.400 C 40.400 114.840,40.220 115.200,40.000 115.200 C 39.780 115.200,39.600 115.560,39.600 116.000 C 39.600 116.440,39.420 116.800,39.200 116.800 C 38.980 116.800,38.800 117.160,38.800 117.600 C 38.800 118.040,38.620 118.400,38.400 118.400 C 38.180 118.400,38.000 118.760,38.000 119.200 C 38.000 119.640,37.820 120.000,37.600 120.000 C 37.380 120.000,37.200 120.360,37.200 120.800 C 37.200 121.240,37.020 121.600,36.800 121.600 C 36.580 121.600,36.400 121.960,36.400 122.400 C 36.400 122.840,36.220 123.200,36.000 123.200 C 35.780 123.200,35.600 123.560,35.600 124.000 C 35.600 124.440,35.420 124.800,35.200 124.800 C 34.980 124.800,34.800 125.250,34.800 125.800 C 34.800 126.350,34.620 126.800,34.400 126.800 C 34.180 126.800,34.000 127.160,34.000 127.600 C 34.000 128.040,33.820 128.400,33.600 128.400 C 33.380 128.400,33.200 128.749,33.200 129.176 C 33.200 129.603,33.020 130.064,32.800 130.200 C 32.580 130.336,32.400 130.887,32.400 131.424 C 32.400 131.961,32.220 132.400,32.000 132.400 C 31.780 132.400,31.600 132.749,31.600 133.176 C 31.600 133.603,31.420 134.064,31.200 134.200 C 30.980 134.336,30.800 134.887,30.800 135.424 C 30.800 135.961,30.620 136.400,30.400 136.400 C 30.180 136.400,30.000 136.940,30.000 137.600 C 30.000 138.260,29.820 138.800,29.600 138.800 C 29.380 138.800,29.200 139.340,29.200 140.000 C 29.200 140.660,29.020 141.200,28.800 141.200 C 28.580 141.200,28.400 141.639,28.400 142.176 C 28.400 142.713,28.220 143.264,28.000 143.400 C 27.780 143.536,27.600 143.999,27.600 144.429 C 27.600 144.859,27.438 145.523,27.239 145.905 C 27.040 146.287,26.694 147.320,26.470 148.200 C 26.246 149.080,25.778 150.766,25.431 151.946 C 25.084 153.126,24.800 154.701,24.800 155.446 C 24.800 156.191,24.620 156.800,24.400 156.800 C 24.180 156.800,24.000 157.610,24.000 158.600 C 24.000 159.590,23.820 160.400,23.600 160.400 C 23.380 160.400,23.200 161.210,23.200 162.200 C 23.200 163.190,23.020 164.000,22.800 164.000 C 22.580 164.000,22.400 164.990,22.400 166.200 C 22.400 167.410,22.220 168.400,22.000 168.400 C 21.778 168.400,21.600 169.467,21.600 170.800 C 21.600 172.133,21.422 173.200,21.200 173.200 C 20.967 173.200,20.800 174.533,20.800 176.400 C 20.800 178.267,20.633 179.600,20.400 179.600 C 20.157 179.600,20.000 181.392,20.000 184.176 C 20.000 186.796,19.829 188.858,19.600 189.000 C 19.349 189.155,19.200 193.263,19.200 200.000 C 19.200 206.737,19.349 210.845,19.600 211.000 C 19.829 211.142,20.000 213.204,20.000 215.824 C 20.000 218.608,20.157 220.400,20.400 220.400 C 20.633 220.400,20.800 221.733,20.800 223.600 C 20.800 225.467,20.967 226.800,21.200 226.800 C 21.422 226.800,21.600 227.867,21.600 229.200 C 21.600 230.533,21.778 231.600,22.000 231.600 C 22.220 231.600,22.400 232.489,22.400 233.576 C 22.400 234.663,22.580 235.664,22.800 235.800 C 23.020 235.936,23.200 236.847,23.200 237.824 C 23.200 238.801,23.380 239.600,23.600 239.600 C 23.820 239.600,24.000 240.410,24.000 241.400 C 24.000 242.390,24.180 243.200,24.400 243.200 C 24.620 243.200,24.800 243.809,24.800 244.554 C 24.800 245.299,25.084 246.874,25.431 248.054 C 25.778 249.234,26.246 250.920,26.470 251.800 C 26.694 252.680,27.040 253.713,27.239 254.095 C 27.438 254.477,27.600 255.141,27.600 255.571 C 27.600 256.001,27.780 256.464,28.000 256.600 C 28.220 256.736,28.400 257.287,28.400 257.824 C 28.400 258.361,28.580 258.800,28.800 258.800 C 29.020 258.800,29.200 259.340,29.200 260.000 C 29.200 260.660,29.380 261.200,29.600 261.200 C 29.820 261.200,30.000 261.740,30.000 262.400 C 30.000 263.060,30.180 263.600,30.400 263.600 C 30.620 263.600,30.800 264.039,30.800 264.576 C 30.800 265.113,30.980 265.664,31.200 265.800 C 31.420 265.936,31.600 266.397,31.600 266.824 C 31.600 267.251,31.780 267.600,32.000 267.600 C 32.220 267.600,32.400 268.039,32.400 268.576 C 32.400 269.113,32.580 269.664,32.800 269.800 C 33.020 269.936,33.200 270.397,33.200 270.824 C 33.200 271.251,33.380 271.600,33.600 271.600 C 33.820 271.600,34.000 271.960,34.000 272.400 C 34.000 272.840,34.180 273.200,34.400 273.200 C 34.620 273.200,34.800 273.650,34.800 274.200 C 34.800 274.750,34.980 275.200,35.200 275.200 C 35.420 275.200,35.600 275.560,35.600 276.000 C 35.600 276.440,35.780 276.800,36.000 276.800 C 36.220 276.800,36.400 277.160,36.400 277.600 C 36.400 278.040,36.580 278.400,36.800 278.400 C 37.020 278.400,37.200 278.760,37.200 279.200 C 37.200 279.640,37.380 280.000,37.600 280.000 C 37.820 280.000,38.000 280.360,38.000 280.800 C 38.000 281.240,38.180 281.600,38.400 281.600 C 38.620 281.600,38.800 281.960,38.800 282.400 C 38.800 282.840,38.980 283.200,39.200 283.200 C 39.420 283.200,39.600 283.560,39.600 284.000 C 39.600 284.440,39.780 284.800,40.000 284.800 C 40.220 284.800,40.400 285.160,40.400 285.600 C 40.400 286.040,40.580 286.400,40.800 286.400 C 41.020 286.400,41.200 286.760,41.200 287.200 C 41.200 287.640,41.335 288.002,41.500 288.004 C 41.665 288.006,42.155 288.816,42.590 289.804 C 43.024 290.792,43.474 291.603,43.590 291.606 C 43.705 291.610,44.240 292.510,44.779 293.606 C 45.317 294.703,45.902 295.600,46.079 295.600 C 46.255 295.600,46.400 295.836,46.400 296.125 C 46.400 296.413,46.760 297.036,47.200 297.508 C 47.640 297.980,48.000 298.604,48.000 298.895 C 48.000 299.186,48.360 299.683,48.800 300.000 C 49.240 300.317,49.600 300.857,49.600 301.200 C 49.600 301.543,49.960 302.083,50.400 302.400 C 50.840 302.717,51.200 303.180,51.200 303.429 C 51.200 303.678,51.695 304.406,52.300 305.048 C 52.905 305.689,53.655 306.706,53.968 307.307 C 54.280 307.908,54.685 308.400,54.868 308.400 C 55.050 308.400,55.200 308.594,55.200 308.831 C 55.200 309.069,55.920 309.954,56.800 310.800 C 57.680 311.646,58.400 312.584,58.400 312.885 C 58.400 313.187,59.009 314.079,59.752 314.867 C 60.496 315.656,61.293 316.638,61.523 317.050 C 62.718 319.190,80.810 337.282,82.950 338.477 C 83.362 338.707,84.344 339.504,85.133 340.248 C 85.921 340.991,86.813 341.600,87.115 341.600 C 87.416 341.600,88.354 342.320,89.200 343.200 C 90.046 344.080,90.978 344.800,91.272 344.800 C 91.567 344.800,92.032 345.160,92.307 345.600 C 92.582 346.040,92.987 346.400,93.207 346.400 C 93.427 346.400,94.172 346.940,94.863 347.600 C 95.554 348.260,96.322 348.800,96.571 348.800 C 96.820 348.800,97.283 349.160,97.600 349.600 C 97.917 350.040,98.457 350.400,98.800 350.400 C 99.143 350.400,99.683 350.760,100.000 351.200 C 100.317 351.640,100.897 352.000,101.288 352.000 C 101.680 352.000,102.000 352.150,102.000 352.332 C 102.000 352.515,102.495 352.920,103.100 353.232 C 103.705 353.544,104.290 353.889,104.400 353.999 C 104.794 354.395,107.013 355.654,107.700 355.871 C 108.085 355.993,108.400 356.252,108.400 356.447 C 108.400 356.641,108.584 356.800,108.808 356.800 C 109.032 356.800,109.929 357.250,110.800 357.800 C 111.671 358.350,112.658 358.800,112.992 358.800 C 113.326 358.800,113.600 358.980,113.600 359.200 C 113.600 359.420,113.960 359.600,114.400 359.600 C 114.840 359.600,115.200 359.780,115.200 360.000 C 115.200 360.220,115.560 360.400,116.000 360.400 C 116.440 360.400,116.800 360.580,116.800 360.800 C 116.800 361.020,117.160 361.200,117.600 361.200 C 118.040 361.200,118.400 361.380,118.400 361.600 C 118.400 361.820,118.760 362.000,119.200 362.000 C 119.640 362.000,120.000 362.180,120.000 362.400 C 120.000 362.620,120.360 362.800,120.800 362.800 C 121.240 362.800,121.600 362.980,121.600 363.200 C 121.600 363.420,121.960 363.600,122.400 363.600 C 122.840 363.600,123.200 363.780,123.200 364.000 C 123.200 364.220,123.560 364.400,124.000 364.400 C 124.440 364.400,124.800 364.580,124.800 364.800 C 124.800 365.020,125.250 365.200,125.800 365.200 C 126.350 365.200,126.800 365.380,126.800 365.600 C 126.800 365.820,127.160 366.000,127.600 366.000 C 128.040 366.000,128.400 366.180,128.400 366.400 C 128.400 366.620,128.749 366.800,129.176 366.800 C 129.603 366.800,130.064 366.980,130.200 367.200 C 130.336 367.420,130.887 367.600,131.424 367.600 C 131.961 367.600,132.400 367.780,132.400 368.000 C 132.400 368.220,132.749 368.400,133.176 368.400 C 133.603 368.400,134.064 368.580,134.200 368.800 C 134.336 369.020,134.887 369.200,135.424 369.200 C 135.961 369.200,136.400 369.380,136.400 369.600 C 136.400 369.820,136.940 370.000,137.600 370.000 C 138.260 370.000,138.800 370.180,138.800 370.400 C 138.800 370.620,139.340 370.800,140.000 370.800 C 140.660 370.800,141.200 370.980,141.200 371.200 C 141.200 371.420,141.639 371.600,142.176 371.600 C 142.713 371.600,143.264 371.780,143.400 372.000 C 143.536 372.220,143.999 372.400,144.429 372.400 C 144.859 372.400,145.523 372.558,145.905 372.751 C 147.033 373.320,149.396 374.000,150.248 374.000 C 150.684 374.000,151.224 374.184,151.448 374.408 C 151.673 374.633,153.065 374.930,154.541 375.067 C 156.018 375.205,157.321 375.472,157.436 375.659 C 157.552 375.847,158.267 376.000,159.024 376.000 C 159.781 376.000,160.400 376.180,160.400 376.400 C 160.400 376.620,161.300 376.800,162.400 376.800 C 163.500 376.800,164.400 376.980,164.400 377.200 C 164.400 377.420,165.300 377.600,166.400 377.600 C 167.500 377.600,168.400 377.780,168.400 378.000 C 168.400 378.225,169.525 378.400,170.976 378.400 C 172.393 378.400,173.664 378.580,173.800 378.800 C 173.936 379.020,175.286 379.200,176.800 379.200 C 178.314 379.200,179.664 379.380,179.800 379.600 C 179.942 379.831,182.071 380.000,184.824 380.000 C 187.741 380.000,189.600 380.156,189.600 380.400 C 189.600 380.656,193.333 380.800,200.000 380.800 C 206.667 380.800,210.400 380.656,210.400 380.400 C 210.400 380.156,212.259 380.000,215.176 380.000 C 217.929 380.000,220.058 379.831,220.200 379.600 C 220.336 379.380,221.686 379.200,223.200 379.200 C 224.714 379.200,226.064 379.020,226.200 378.800 C 226.336 378.580,227.607 378.400,229.024 378.400 C 230.475 378.400,231.600 378.225,231.600 378.000 C 231.600 377.780,232.500 377.600,233.600 377.600 C 234.700 377.600,235.600 377.420,235.600 377.200 C 235.600 376.980,236.500 376.800,237.600 376.800 C 238.700 376.800,239.600 376.620,239.600 376.400 C 239.600 376.180,240.219 376.000,240.976 376.000 C 241.733 376.000,242.448 375.847,242.564 375.659 C 242.679 375.472,243.982 375.205,245.459 375.067 C 246.935 374.930,248.327 374.633,248.552 374.408 C 248.776 374.184,249.316 374.000,249.752 374.000 C 250.604 374.000,252.967 373.320,254.095 372.751 C 254.477 372.558,255.141 372.400,255.571 372.400 C 256.001 372.400,256.464 372.220,256.600 372.000 C 256.736 371.780,257.287 371.600,257.824 371.600 C 258.361 371.600,258.800 371.420,258.800 371.200 C 258.800 370.980,259.340 370.800,260.000 370.800 C 260.660 370.800,261.200 370.620,261.200 370.400 C 261.200 370.180,261.740 370.000,262.400 370.000 C 263.060 370.000,263.600 369.820,263.600 369.600 C 263.600 369.380,264.039 369.200,264.576 369.200 C 265.113 369.200,265.664 369.020,265.800 368.800 C 265.936 368.580,266.397 368.400,266.824 368.400 C 267.251 368.400,267.600 368.220,267.600 368.000 C 267.600 367.780,268.039 367.600,268.576 367.600 C 269.113 367.600,269.664 367.420,269.800 367.200 C 269.936 366.980,270.397 366.800,270.824 366.800 C 271.251 366.800,271.600 366.620,271.600 366.400 C 271.600 366.180,271.960 366.000,272.400 366.000 C 272.840 366.000,273.200 365.820,273.200 365.600 C 273.200 365.380,273.650 365.200,274.200 365.200 C 274.750 365.200,275.200 365.020,275.200 364.800 C 275.200 364.580,275.560 364.400,276.000 364.400 C 276.440 364.400,276.800 364.220,276.800 364.000 C 276.800 363.780,277.160 363.600,277.600 363.600 C 278.040 363.600,278.400 363.420,278.400 363.200 C 278.400 362.980,278.760 362.800,279.200 362.800 C 279.640 362.800,280.000 362.620,280.000 362.400 C 280.000 362.180,280.360 362.000,280.800 362.000 C 281.240 362.000,281.600 361.820,281.600 361.600 C 281.600 361.380,281.960 361.200,282.400 361.200 C 282.840 361.200,283.200 361.020,283.200 360.800 C 283.200 360.580,283.560 360.400,284.000 360.400 C 284.440 360.400,284.800 360.220,284.800 360.000 C 284.800 359.780,285.160 359.600,285.600 359.600 C 286.040 359.600,286.400 359.420,286.400 359.200 C 286.400 358.980,286.738 358.800,287.151 358.800 C 287.564 358.800,288.095 358.567,288.332 358.282 C 288.568 357.997,289.400 357.514,290.181 357.208 C 290.961 356.901,291.600 356.504,291.600 356.325 C 291.600 356.146,291.836 356.000,292.125 356.000 C 292.413 356.000,293.036 355.640,293.508 355.200 C 293.980 354.760,294.644 354.400,294.983 354.400 C 295.322 354.400,295.600 354.220,295.600 354.000 C 295.600 353.780,295.836 353.600,296.125 353.600 C 296.413 353.600,297.036 353.240,297.508 352.800 C 297.980 352.360,298.604 352.000,298.895 352.000 C 299.186 352.000,299.683 351.640,300.000 351.200 C 300.317 350.760,300.857 350.400,301.200 350.400 C 301.543 350.400,302.083 350.040,302.400 349.600 C 302.717 349.160,303.180 348.800,303.429 348.800 C 303.678 348.800,304.406 348.305,305.048 347.700 C 305.689 347.095,306.706 346.345,307.307 346.032 C 307.908 345.720,308.400 345.315,308.400 345.132 C 308.400 344.950,308.594 344.800,308.831 344.800 C 309.069 344.800,309.954 344.080,310.800 343.200 C 311.646 342.320,312.584 341.600,312.885 341.600 C 313.187 341.600,314.056 341.014,314.817 340.297 C 315.577 339.580,316.822 338.552,317.581 338.012 C 320.632 335.843,335.843 320.632,338.012 317.581 C 338.552 316.822,339.580 315.577,340.297 314.817 C 341.014 314.056,341.600 313.187,341.600 312.885 C 341.600 312.584,342.320 311.646,343.200 310.800 C 344.080 309.954,344.800 309.069,344.800 308.831 C 344.800 308.594,344.950 308.400,345.132 308.400 C 345.315 308.400,345.720 307.908,346.032 307.307 C 346.345 306.706,347.095 305.689,347.700 305.048 C 348.305 304.406,348.800 303.678,348.800 303.429 C 348.800 303.180,349.160 302.717,349.600 302.400 C 350.040 302.083,350.400 301.543,350.400 301.200 C 350.400 300.857,350.760 300.317,351.200 300.000 C 351.640 299.683,352.000 299.186,352.000 298.895 C 352.000 298.604,352.360 297.980,352.800 297.508 C 353.240 297.036,353.600 296.413,353.600 296.125 C 353.600 295.836,353.780 295.600,354.000 295.600 C 354.220 295.600,354.400 295.322,354.400 294.983 C 354.400 294.644,354.760 293.980,355.200 293.508 C 355.640 293.036,356.000 292.413,356.000 292.125 C 356.000 291.836,356.146 291.600,356.325 291.600 C 356.504 291.600,356.901 290.961,357.208 290.181 C 357.514 289.400,357.997 288.568,358.282 288.332 C 358.567 288.095,358.800 287.564,358.800 287.151 C 358.800 286.738,358.980 286.400,359.200 286.400 C 359.420 286.400,359.600 286.040,359.600 285.600 C 359.600 285.160,359.780 284.800,360.000 284.800 C 360.220 284.800,360.400 284.440,360.400 284.000 C 360.400 283.560,360.580 283.200,360.800 283.200 C 361.020 283.200,361.200 282.840,361.200 282.400 C 361.200 281.960,361.380 281.600,361.600 281.600 C 361.820 281.600,362.000 281.240,362.000 280.800 C 362.000 280.360,362.180 280.000,362.400 280.000 C 362.620 280.000,362.800 279.640,362.800 279.200 C 362.800 278.760,362.980 278.400,363.200 278.400 C 363.420 278.400,363.600 278.040,363.600 277.600 C 363.600 277.160,363.780 276.800,364.000 276.800 C 364.220 276.800,364.400 276.440,364.400 276.000 C 364.400 275.560,364.580 275.200,364.800 275.200 C 365.020 275.200,365.200 274.750,365.200 274.200 C 365.200 273.650,365.380 273.200,365.600 273.200 C 365.820 273.200,366.000 272.840,366.000 272.400 C 366.000 271.960,366.180 271.600,366.400 271.600 C 366.620 271.600,366.800 271.251,366.800 270.824 C 366.800 270.397,366.980 269.936,367.200 269.800 C 367.420 269.664,367.600 269.113,367.600 268.576 C 367.600 268.039,367.780 267.600,368.000 267.600 C 368.220 267.600,368.400 267.251,368.400 266.824 C 368.400 266.397,368.580 265.936,368.800 265.800 C 369.020 265.664,369.200 265.113,369.200 264.576 C 369.200 264.039,369.380 263.600,369.600 263.600 C 369.820 263.600,370.000 263.060,370.000 262.400 C 370.000 261.740,370.180 261.200,370.400 261.200 C 370.620 261.200,370.800 260.660,370.800 260.000 C 370.800 259.340,370.980 258.800,371.200 258.800 C 371.420 258.800,371.600 258.361,371.600 257.824 C 371.600 257.287,371.780 256.736,372.000 256.600 C 372.220 256.464,372.400 256.001,372.400 255.571 C 372.400 255.141,372.558 254.477,372.751 254.095 C 373.320 252.967,374.000 250.604,374.000 249.752 C 374.000 249.316,374.184 248.776,374.408 248.552 C 374.633 248.327,374.930 246.935,375.067 245.459 C 375.205 243.982,375.472 242.679,375.659 242.564 C 375.847 242.448,376.000 241.733,376.000 240.976 C 376.000 240.219,376.180 239.600,376.400 239.600 C 376.620 239.600,376.800 238.700,376.800 237.600 C 376.800 236.500,376.980 235.600,377.200 235.600 C 377.420 235.600,377.600 234.700,377.600 233.600 C 377.600 232.500,377.780 231.600,378.000 231.600 C 378.225 231.600,378.400 230.475,378.400 229.024 C 378.400 227.607,378.580 226.336,378.800 226.200 C 379.020 226.064,379.200 224.714,379.200 223.200 C 379.200 221.686,379.380 220.336,379.600 220.200 C 379.831 220.058,380.000 217.929,380.000 215.176 C 380.000 212.259,380.156 210.400,380.400 210.400 C 380.656 210.400,380.800 206.667,380.800 200.000 C 380.800 193.333,380.656 189.600,380.400 189.600 C 380.156 189.600,380.000 187.741,380.000 184.824 C 380.000 182.071,379.831 179.942,379.600 179.800 C 379.380 179.664,379.200 178.314,379.200 176.800 C 379.200 175.286,379.020 173.936,378.800 173.800 C 378.580 173.664,378.400 172.393,378.400 170.976 C 378.400 169.525,378.225 168.400,378.000 168.400 C 377.780 168.400,377.600 167.500,377.600 166.400 C 377.600 165.300,377.420 164.400,377.200 164.400 C 376.980 164.400,376.800 163.500,376.800 162.400 C 376.800 161.300,376.620 160.400,376.400 160.400 C 376.180 160.400,376.000 159.781,376.000 159.024 C 376.000 158.267,375.847 157.552,375.659 157.436 C 375.472 157.321,375.205 156.018,375.067 154.541 C 374.930 153.065,374.633 151.673,374.408 151.448 C 374.184 151.224,374.000 150.684,374.000 150.248 C 374.000 149.396,373.320 147.033,372.751 145.905 C 372.558 145.523,372.400 144.859,372.400 144.429 C 372.400 143.999,372.220 143.536,372.000 143.400 C 371.780 143.264,371.600 142.713,371.600 142.176 C 371.600 141.639,371.420 141.200,371.200 141.200 C 370.980 141.200,370.800 140.660,370.800 140.000 C 370.800 139.340,370.620 138.800,370.400 138.800 C 370.180 138.800,370.000 138.260,370.000 137.600 C 370.000 136.940,369.820 136.400,369.600 136.400 C 369.380 136.400,369.200 135.961,369.200 135.424 C 369.200 134.887,369.020 134.336,368.800 134.200 C 368.580 134.064,368.400 133.603,368.400 133.176 C 368.400 132.749,368.220 132.400,368.000 132.400 C 367.780 132.400,367.600 131.961,367.600 131.424 C 367.600 130.887,367.420 130.336,367.200 130.200 C 366.980 130.064,366.800 129.603,366.800 129.176 C 366.800 128.749,366.620 128.400,366.400 128.400 C 366.180 128.400,366.000 128.040,366.000 127.600 C 366.000 127.160,365.820 126.800,365.600 126.800 C 365.380 126.800,365.200 126.350,365.200 125.800 C 365.200 125.250,365.020 124.800,364.800 124.800 C 364.580 124.800,364.400 124.440,364.400 124.000 C 364.400 123.560,364.220 123.200,364.000 123.200 C 363.780 123.200,363.600 122.840,363.600 122.400 C 363.600 121.960,363.420 121.600,363.200 121.600 C 362.980 121.600,362.800 121.240,362.800 120.800 C 362.800 120.360,362.620 120.000,362.400 120.000 C 362.180 120.000,362.000 119.640,362.000 119.200 C 362.000 118.760,361.820 118.400,361.600 118.400 C 361.380 118.400,361.200 118.040,361.200 117.600 C 361.200 117.160,361.020 116.800,360.800 116.800 C 360.580 116.800,360.400 116.440,360.400 116.000 C 360.400 115.560,360.220 115.200,360.000 115.200 C 359.780 115.200,359.600 114.840,359.600 114.400 C 359.600 113.960,359.420 113.600,359.200 113.600 C 358.980 113.600,358.800 113.326,358.800 112.992 C 358.800 112.658,358.350 111.671,357.800 110.800 C 357.250 109.929,356.800 109.032,356.800 108.808 C 356.800 108.584,356.641 108.400,356.447 108.400 C 356.252 108.400,355.993 108.085,355.871 107.700 C 355.654 107.013,354.395 104.794,353.999 104.400 C 353.889 104.290,353.544 103.705,353.232 103.100 C 352.920 102.495,352.515 102.000,352.332 102.000 C 352.150 102.000,352.000 101.680,352.000 101.288 C 352.000 100.897,351.640 100.317,351.200 100.000 C 350.760 99.683,350.400 99.143,350.400 98.800 C 350.400 98.457,350.040 97.917,349.600 97.600 C 349.160 97.283,348.800 96.820,348.800 96.571 C 348.800 96.322,348.260 95.554,347.600 94.863 C 346.940 94.172,346.400 93.427,346.400 93.207 C 346.400 92.987,346.040 92.582,345.600 92.307 C 345.160 92.032,344.800 91.567,344.800 91.272 C 344.800 90.978,344.080 90.046,343.200 89.200 C 342.320 88.354,341.600 87.416,341.600 87.115 C 341.600 86.813,340.991 85.921,340.248 85.133 C 339.504 84.344,338.707 83.362,338.477 82.950 C 337.282 80.810,319.190 62.718,317.050 61.523 C 316.638 61.293,315.656 60.496,314.867 59.752 C 314.079 59.009,313.187 58.400,312.885 58.400 C 312.584 58.400,311.646 57.680,310.800 56.800 C 309.954 55.920,309.069 55.200,308.831 55.200 C 308.594 55.200,308.400 55.059,308.400 54.886 C 308.400 54.714,307.905 54.279,307.300 53.921 C 306.695 53.563,305.660 52.804,305.000 52.235 C 304.340 51.666,303.615 51.201,303.388 51.200 C 303.162 51.200,302.717 50.840,302.400 50.400 C 302.083 49.960,301.543 49.600,301.200 49.600 C 300.857 49.600,300.317 49.240,300.000 48.800 C 299.683 48.360,299.186 48.000,298.895 48.000 C 298.604 48.000,297.980 47.640,297.508 47.200 C 297.036 46.760,296.413 46.400,296.125 46.400 C 295.836 46.400,295.600 46.242,295.600 46.049 C 295.600 45.855,295.060 45.473,294.400 45.200 C 293.740 44.927,293.200 44.545,293.200 44.351 C 293.200 44.158,292.840 44.000,292.400 44.000 C 291.960 44.000,291.600 43.860,291.600 43.690 C 291.600 43.519,290.792 43.024,289.804 42.590 C 288.816 42.155,288.006 41.665,288.004 41.500 C 288.002 41.335,287.640 41.200,287.200 41.200 C 286.760 41.200,286.400 41.020,286.400 40.800 C 286.400 40.580,286.040 40.400,285.600 40.400 C 285.160 40.400,284.800 40.220,284.800 40.000 C 284.800 39.780,284.440 39.600,284.000 39.600 C 283.560 39.600,283.200 39.420,283.200 39.200 C 283.200 38.980,282.840 38.800,282.400 38.800 C 281.960 38.800,281.600 38.620,281.600 38.400 C 281.600 38.180,281.240 38.000,280.800 38.000 C 280.360 38.000,280.000 37.820,280.000 37.600 C 280.000 37.380,279.640 37.200,279.200 37.200 C 278.760 37.200,278.400 37.020,278.400 36.800 C 278.400 36.580,278.040 36.400,277.600 36.400 C 277.160 36.400,276.800 36.220,276.800 36.000 C 276.800 35.780,276.440 35.600,276.000 35.600 C 275.560 35.600,275.200 35.420,275.200 35.200 C 275.200 34.980,274.750 34.800,274.200 34.800 C 273.650 34.800,273.200 34.620,273.200 34.400 C 273.200 34.180,272.840 34.000,272.400 34.000 C 271.960 34.000,271.600 33.820,271.600 33.600 C 271.600 33.380,271.251 33.200,270.824 33.200 C 270.397 33.200,269.936 33.020,269.800 32.800 C 269.664 32.580,269.113 32.400,268.576 32.400 C 268.039 32.400,267.600 32.220,267.600 32.000 C 267.600 31.780,267.251 31.600,266.824 31.600 C 266.397 31.600,265.936 31.420,265.800 31.200 C 265.664 30.980,265.113 30.800,264.576 30.800 C 264.039 30.800,263.600 30.620,263.600 30.400 C 263.600 30.180,263.060 30.000,262.400 30.000 C 261.740 30.000,261.200 29.820,261.200 29.600 C 261.200 29.380,260.660 29.200,260.000 29.200 C 259.340 29.200,258.800 29.020,258.800 28.800 C 258.800 28.580,258.361 28.400,257.824 28.400 C 257.287 28.400,256.736 28.220,256.600 28.000 C 256.464 27.780,256.001 27.600,255.571 27.600 C 255.141 27.600,254.477 27.438,254.095 27.239 C 253.713 27.040,252.680 26.694,251.800 26.470 C 250.920 26.246,249.234 25.778,248.054 25.431 C 246.874 25.084,245.299 24.800,244.554 24.800 C 243.809 24.800,243.200 24.620,243.200 24.400 C 243.200 24.180,242.390 24.000,241.400 24.000 C 240.410 24.000,239.600 23.820,239.600 23.600 C 239.600 23.380,238.790 23.200,237.800 23.200 C 236.810 23.200,236.000 23.020,236.000 22.800 C 236.000 22.580,235.010 22.400,233.800 22.400 C 232.590 22.400,231.600 22.220,231.600 22.000 C 231.600 21.778,230.533 21.600,229.200 21.600 C 227.867 21.600,226.800 21.422,226.800 21.200 C 226.800 20.967,225.467 20.800,223.600 20.800 C 221.733 20.800,220.400 20.633,220.400 20.400 C 220.400 20.156,218.541 20.000,215.624 20.000 C 212.871 20.000,210.742 19.831,210.600 19.600 C 210.445 19.350,206.470 19.200,200.000 19.200 C 193.530 19.200,189.555 19.350,189.400 19.600 M140.400 101.600 C 140.400 101.820,140.668 102.000,140.995 102.000 C 141.782 102.000,143.195 103.178,148.500 108.258 C 149.985 109.680,151.200 111.032,151.200 111.262 C 151.200 111.491,151.740 112.183,152.400 112.800 C 153.060 113.417,153.600 114.092,153.600 114.301 C 153.600 114.510,154.140 115.246,154.800 115.937 C 155.460 116.628,156.000 117.348,156.000 117.537 C 156.000 117.726,156.540 118.446,157.200 119.137 C 157.860 119.828,158.400 120.642,158.400 120.947 C 158.400 121.252,158.670 121.726,159.000 122.000 C 159.330 122.274,159.600 122.663,159.600 122.865 C 159.600 123.302,161.270 125.742,161.700 125.933 C 161.865 126.007,162.000 126.372,162.000 126.745 C 162.000 127.118,162.360 127.683,162.800 128.000 C 163.240 128.317,163.600 128.897,163.600 129.288 C 163.600 129.680,163.780 130.000,164.000 130.000 C 164.220 130.000,164.400 130.320,164.400 130.712 C 164.400 131.103,164.760 131.683,165.200 132.000 C 165.640 132.317,166.000 132.897,166.000 133.288 C 166.000 133.680,166.180 134.000,166.400 134.000 C 166.620 134.000,166.800 134.360,166.800 134.800 C 166.800 135.240,166.980 135.600,167.200 135.600 C 167.420 135.600,167.600 135.960,167.600 136.400 C 167.600 136.840,167.746 137.200,167.925 137.200 C 168.104 137.200,168.498 137.830,168.800 138.600 C 169.102 139.370,169.496 140.000,169.675 140.000 C 169.854 140.000,170.000 140.360,170.000 140.800 C 170.000 141.240,170.180 141.600,170.400 141.600 C 170.620 141.600,170.800 141.960,170.800 142.400 C 170.800 142.840,170.980 143.200,171.200 143.200 C 171.420 143.200,171.600 143.560,171.600 144.000 C 171.600 144.440,171.780 144.800,172.000 144.800 C 172.220 144.800,172.400 145.160,172.400 145.600 C 172.400 146.040,172.580 146.400,172.800 146.400 C 173.020 146.400,173.200 146.760,173.200 147.200 C 173.200 147.640,173.380 148.000,173.600 148.000 C 173.820 148.000,174.000 148.525,174.000 149.167 C 174.000 149.808,174.219 150.406,174.486 150.495 C 175.696 150.899,174.752 160.400,173.502 160.400 C 173.336 160.400,173.200 160.760,173.200 161.200 C 173.200 161.640,173.020 162.000,172.800 162.000 C 172.580 162.000,172.400 162.360,172.400 162.800 C 172.400 163.240,172.220 163.600,172.000 163.600 C 171.780 163.600,171.600 163.920,171.600 164.312 C 171.600 164.703,171.240 165.283,170.800 165.600 C 170.360 165.917,170.000 166.414,170.000 166.705 C 170.000 166.996,169.640 167.620,169.200 168.092 C 168.760 168.564,168.400 169.187,168.400 169.475 C 168.400 169.764,168.220 170.000,168.000 170.000 C 167.780 170.000,167.600 170.360,167.600 170.800 C 167.600 171.240,167.420 171.600,167.200 171.600 C 166.980 171.600,166.800 171.949,166.800 172.376 C 166.800 172.803,166.620 173.264,166.400 173.400 C 166.180 173.536,166.000 174.166,166.000 174.800 C 166.000 175.434,165.820 176.064,165.600 176.200 C 165.380 176.336,165.200 177.787,165.200 179.424 C 165.200 181.141,165.369 182.400,165.600 182.400 C 165.820 182.400,166.000 182.940,166.000 183.600 C 166.000 184.260,166.180 184.800,166.400 184.800 C 166.620 184.800,166.800 185.160,166.800 185.600 C 166.800 186.040,166.980 186.400,167.200 186.400 C 167.420 186.400,167.600 186.670,167.600 187.000 C 167.600 187.330,167.780 187.600,168.000 187.600 C 168.220 187.600,168.400 187.870,168.400 188.200 C 168.400 188.530,168.580 188.800,168.800 188.800 C 169.020 188.800,169.200 189.070,169.200 189.400 C 169.200 189.730,169.380 190.000,169.600 190.000 C 169.820 190.000,170.000 190.270,170.000 190.600 C 170.000 190.930,170.180 191.200,170.400 191.200 C 170.620 191.200,170.800 191.398,170.800 191.640 C 170.800 191.881,171.340 192.583,172.000 193.200 C 172.660 193.817,173.200 194.543,173.200 194.814 C 173.200 195.084,173.535 195.597,173.945 195.953 C 174.355 196.309,175.172 197.320,175.761 198.200 C 177.382 200.620,180.016 203.557,186.400 210.062 C 189.590 213.312,193.190 217.014,194.400 218.288 C 195.610 219.563,197.410 221.234,198.400 222.002 C 199.390 222.770,200.596 223.758,201.081 224.199 C 202.700 225.672,203.163 226.000,203.623 226.000 C 203.874 226.000,204.583 226.540,205.200 227.200 C 205.817 227.860,206.569 228.400,206.872 228.400 C 207.175 228.400,207.683 228.760,208.000 229.200 C 208.317 229.640,208.807 230.000,209.088 230.000 C 209.370 230.000,209.600 230.180,209.600 230.400 C 209.600 230.620,209.870 230.800,210.200 230.800 C 210.530 230.800,210.800 230.980,210.800 231.200 C 210.800 231.420,211.149 231.600,211.576 231.600 C 212.003 231.600,212.464 231.780,212.600 232.000 C 212.739 232.225,214.663 232.400,217.000 232.400 C 219.337 232.400,221.261 232.225,221.400 232.000 C 221.536 231.780,221.997 231.600,222.424 231.600 C 222.851 231.600,223.200 231.420,223.200 231.200 C 223.200 230.980,223.650 230.800,224.200 230.800 C 224.750 230.800,225.200 230.620,225.200 230.400 C 225.200 230.180,225.436 230.000,225.725 230.000 C 226.013 230.000,226.636 229.640,227.108 229.200 C 227.580 228.760,228.244 228.400,228.583 228.400 C 228.922 228.400,229.200 228.220,229.200 228.000 C 229.200 227.780,229.520 227.600,229.912 227.600 C 230.303 227.600,230.883 227.240,231.200 226.800 C 231.517 226.360,232.097 226.000,232.488 226.000 C 232.880 226.000,233.200 225.820,233.200 225.600 C 233.200 225.380,233.464 225.200,233.786 225.200 C 234.510 225.200,237.951 224.114,238.895 223.587 C 239.856 223.051,245.718 223.100,247.081 223.656 C 247.697 223.907,248.767 224.357,249.460 224.656 C 250.154 224.955,251.009 225.200,251.360 225.200 C 251.712 225.200,252.000 225.380,252.000 225.600 C 252.000 225.820,252.360 226.000,252.800 226.000 C 253.240 226.000,253.600 226.180,253.600 226.400 C 253.600 226.620,253.960 226.800,254.400 226.800 C 254.840 226.800,255.200 226.980,255.200 227.200 C 255.200 227.420,255.520 227.600,255.912 227.600 C 256.303 227.600,256.883 227.960,257.200 228.400 C 257.517 228.840,258.097 229.200,258.488 229.200 C 258.880 229.200,259.200 229.380,259.200 229.600 C 259.200 229.820,259.388 230.000,259.617 230.000 C 259.846 230.000,260.420 230.360,260.892 230.800 C 261.364 231.240,261.987 231.600,262.275 231.600 C 262.564 231.600,262.800 231.780,262.800 232.000 C 262.800 232.220,263.070 232.400,263.400 232.400 C 263.730 232.400,264.000 232.580,264.000 232.800 C 264.000 233.020,264.270 233.200,264.600 233.200 C 264.930 233.200,265.200 233.380,265.200 233.600 C 265.200 233.820,265.425 234.000,265.700 234.001 C 265.975 234.001,266.830 234.541,267.600 235.200 C 268.370 235.859,269.185 236.399,269.412 236.399 C 269.638 236.400,270.083 236.760,270.400 237.200 C 270.717 237.640,271.215 238.000,271.506 238.000 C 271.798 238.000,272.486 238.450,273.036 239.000 C 273.586 239.550,274.181 240.000,274.357 240.000 C 274.639 240.000,275.251 240.447,277.083 241.993 C 277.349 242.217,277.682 242.400,277.823 242.400 C 277.964 242.400,278.583 242.940,279.200 243.600 C 279.817 244.260,280.501 244.800,280.720 244.800 C 280.939 244.800,282.038 245.700,283.161 246.800 C 284.285 247.900,285.384 248.800,285.605 248.800 C 286.144 248.800,294.297 257.111,295.120 258.500 C 295.479 259.105,295.914 259.600,296.086 259.600 C 296.259 259.600,296.400 259.960,296.400 260.400 C 296.400 260.840,296.580 261.200,296.800 261.200 C 297.040 261.200,297.200 262.800,297.200 265.200 C 297.200 267.600,297.040 269.200,296.800 269.200 C 296.580 269.200,296.400 269.920,296.400 270.800 C 296.400 271.680,296.220 272.400,296.000 272.400 C 295.780 272.400,295.600 272.675,295.600 273.011 C 295.600 273.790,292.909 279.485,292.390 279.806 C 292.176 279.939,292.000 280.308,292.000 280.627 C 292.000 280.946,291.460 281.772,290.800 282.463 C 290.140 283.154,289.600 283.875,289.600 284.066 C 289.600 284.564,283.696 290.400,283.192 290.400 C 282.961 290.400,282.373 290.766,281.886 291.214 C 280.723 292.284,278.502 293.711,276.891 294.424 C 276.181 294.738,275.600 295.131,275.600 295.298 C 275.600 295.464,275.240 295.600,274.800 295.600 C 274.360 295.600,274.000 295.780,274.000 296.000 C 274.000 296.220,273.640 296.400,273.200 296.400 C 272.760 296.400,272.400 296.580,272.400 296.800 C 272.400 297.020,271.860 297.200,271.200 297.200 C 270.540 297.200,270.000 297.380,270.000 297.600 C 270.000 297.820,269.460 298.000,268.800 298.000 C 268.140 298.000,267.600 298.180,267.600 298.400 C 267.600 298.651,265.008 298.800,260.624 298.800 C 256.404 298.800,253.550 298.642,253.400 298.400 C 253.264 298.180,252.173 298.000,250.976 298.000 C 249.779 298.000,248.800 297.820,248.800 297.600 C 248.800 297.380,248.080 297.200,247.200 297.200 C 246.320 297.200,245.600 297.020,245.600 296.800 C 245.600 296.580,244.880 296.400,244.000 296.400 C 243.120 296.400,242.400 296.220,242.400 296.000 C 242.400 295.780,241.961 295.600,241.424 295.600 C 240.887 295.600,240.336 295.420,240.200 295.200 C 240.064 294.980,239.524 294.800,239.000 294.800 C 238.476 294.800,237.936 294.620,237.800 294.400 C 237.664 294.180,237.237 294.000,236.852 294.000 C 236.466 294.000,235.438 293.656,234.568 293.236 C 233.698 292.815,232.314 292.345,231.493 292.191 C 230.672 292.037,230.000 291.751,230.000 291.555 C 230.000 291.360,229.561 291.200,229.024 291.200 C 228.487 291.200,227.936 291.020,227.800 290.800 C 227.664 290.580,227.203 290.400,226.776 290.400 C 226.349 290.400,226.000 290.254,226.000 290.075 C 226.000 289.896,225.370 289.502,224.600 289.200 C 223.830 288.898,223.200 288.504,223.200 288.325 C 223.200 288.146,222.840 288.000,222.400 288.000 C 221.960 288.000,221.600 287.820,221.600 287.600 C 221.600 287.380,221.240 287.200,220.800 287.200 C 220.360 287.200,220.000 287.020,220.000 286.800 C 220.000 286.580,219.640 286.400,219.200 286.400 C 218.760 286.400,218.400 286.220,218.400 286.000 C 218.400 285.780,218.122 285.600,217.783 285.600 C 217.444 285.600,216.780 285.240,216.308 284.800 C 215.836 284.360,215.213 284.000,214.925 284.000 C 214.636 284.000,214.400 283.820,214.400 283.600 C 214.400 283.380,214.040 283.200,213.600 283.200 C 213.160 283.200,212.800 283.020,212.800 282.800 C 212.800 282.580,212.480 282.400,212.088 282.400 C 211.697 282.400,211.117 282.040,210.800 281.600 C 210.483 281.160,209.903 280.800,209.512 280.800 C 209.120 280.800,208.800 280.620,208.800 280.400 C 208.800 280.180,208.558 280.000,208.262 280.000 C 207.966 280.000,207.398 279.640,207.000 279.200 C 206.602 278.760,206.116 278.400,205.921 278.400 C 205.726 278.400,205.349 278.212,205.083 277.983 C 204.817 277.753,203.610 276.951,202.400 276.200 C 201.190 275.449,199.983 274.647,199.717 274.417 C 199.451 274.188,199.045 274.000,198.813 274.000 C 198.582 274.000,197.828 273.460,197.137 272.800 C 196.446 272.140,195.678 271.600,195.429 271.600 C 195.180 271.600,194.717 271.240,194.400 270.800 C 194.083 270.360,193.575 270.000,193.272 270.000 C 192.969 270.000,192.217 269.460,191.600 268.800 C 190.983 268.140,190.353 267.600,190.200 267.600 C 190.047 267.600,189.417 267.060,188.800 266.400 C 188.183 265.740,187.508 265.200,187.299 265.200 C 187.090 265.200,186.397 264.703,185.759 264.096 C 185.122 263.488,183.970 262.545,183.200 261.999 C 182.430 261.453,181.203 260.444,180.473 259.756 C 179.743 259.069,178.670 258.257,178.088 257.953 C 177.506 257.649,175.832 256.185,174.367 254.700 C 172.903 253.215,171.594 252.000,171.460 252.000 C 171.261 252.000,166.257 247.208,159.878 240.908 C 156.831 237.900,149.600 230.341,149.600 230.165 C 149.600 229.897,146.840 226.876,145.643 225.833 C 144.135 224.521,143.200 223.479,143.200 223.110 C 143.200 222.924,142.836 222.373,142.391 221.886 C 140.022 219.290,139.200 218.282,139.200 217.971 C 139.200 217.782,138.570 216.997,137.800 216.227 C 137.030 215.457,136.400 214.684,136.400 214.509 C 136.400 214.167,134.206 211.503,132.100 209.288 C 131.385 208.535,130.800 207.708,130.800 207.448 C 130.800 207.189,130.440 206.717,130.000 206.400 C 129.560 206.083,129.200 205.575,129.200 205.272 C 129.200 204.969,128.660 204.217,128.000 203.600 C 127.340 202.983,126.800 202.231,126.800 201.928 C 126.800 201.625,126.440 201.117,126.000 200.800 C 125.560 200.483,125.200 199.991,125.200 199.708 C 125.200 199.424,124.570 198.295,123.800 197.200 C 123.030 196.105,122.400 195.109,122.400 194.987 C 122.400 194.866,122.040 194.380,121.600 193.908 C 121.160 193.436,120.800 192.813,120.800 192.525 C 120.800 192.236,120.642 192.000,120.449 192.000 C 120.255 192.000,119.873 191.460,119.600 190.800 C 119.327 190.140,118.945 189.600,118.751 189.600 C 118.558 189.600,118.400 189.280,118.400 188.888 C 118.400 188.497,118.040 187.917,117.600 187.600 C 117.160 187.283,116.800 186.703,116.800 186.312 C 116.800 185.920,116.620 185.600,116.400 185.600 C 116.180 185.600,116.000 185.240,116.000 184.800 C 116.000 184.360,115.820 184.000,115.600 184.000 C 115.380 184.000,115.200 183.722,115.200 183.383 C 115.200 183.044,114.840 182.380,114.400 181.908 C 113.960 181.436,113.600 180.813,113.600 180.525 C 113.600 180.236,113.420 180.000,113.200 180.000 C 112.980 180.000,112.800 179.640,112.800 179.200 C 112.800 178.760,112.620 178.400,112.400 178.400 C 112.180 178.400,112.000 178.040,112.000 177.600 C 112.000 177.160,111.854 176.800,111.675 176.800 C 111.496 176.800,111.102 176.170,110.800 175.400 C 110.498 174.630,110.104 174.000,109.925 174.000 C 109.746 174.000,109.600 173.561,109.600 173.024 C 109.600 172.487,109.420 171.936,109.200 171.800 C 108.980 171.664,108.799 171.248,108.798 170.876 C 108.797 170.504,108.347 169.314,107.798 168.232 C 107.249 167.150,106.800 166.022,106.800 165.727 C 106.800 165.431,106.641 164.877,106.447 164.495 C 105.153 161.951,103.600 157.357,103.600 156.072 C 103.600 155.592,103.420 155.200,103.200 155.200 C 102.980 155.200,102.800 154.480,102.800 153.600 C 102.800 152.720,102.620 152.000,102.400 152.000 C 102.180 152.000,102.000 151.100,102.000 150.000 C 102.000 148.900,101.820 148.000,101.600 148.000 C 101.349 148.000,101.200 145.533,101.200 141.400 C 101.200 137.267,101.349 134.800,101.600 134.800 C 101.820 134.800,102.000 134.260,102.000 133.600 C 102.000 132.940,102.180 132.400,102.400 132.400 C 102.620 132.400,102.800 131.860,102.800 131.200 C 102.800 130.540,102.980 130.000,103.200 130.000 C 103.420 130.000,103.600 129.640,103.600 129.200 C 103.600 128.760,103.780 128.400,104.000 128.400 C 104.220 128.400,104.400 128.040,104.400 127.600 C 104.400 127.160,104.580 126.800,104.800 126.800 C 105.020 126.800,105.200 126.480,105.200 126.088 C 105.200 125.697,105.560 125.117,106.000 124.800 C 106.440 124.483,106.800 124.021,106.800 123.774 C 106.800 123.526,107.155 123.002,107.590 122.609 C 108.024 122.216,108.493 121.538,108.631 121.102 C 108.898 120.261,118.563 110.400,119.121 110.400 C 119.301 110.400,119.801 110.085,120.231 109.700 C 120.662 109.315,122.091 108.280,123.407 107.400 C 124.723 106.520,125.860 105.665,125.933 105.500 C 126.007 105.335,126.397 105.200,126.800 105.200 C 127.203 105.200,127.593 105.065,127.667 104.900 C 127.859 104.468,131.172 102.800,131.838 102.800 C 132.147 102.800,132.400 102.620,132.400 102.400 C 132.400 102.180,132.749 102.000,133.176 102.000 C 133.603 102.000,134.064 101.820,134.200 101.600 C 134.336 101.380,135.787 101.200,137.424 101.200 C 139.141 101.200,140.400 101.369,140.400 101.600 " stroke="none" fill="#040404" fill-rule="evenodd"></path><path id="path1" d="" stroke="none" fill="#080404" fill-rule="evenodd"></path><path id="path2" d="" stroke="none" fill="#080404" fill-rule="evenodd"></path><path id="path3" d="" stroke="none" fill="#080404" fill-rule="evenodd"></path><path id="path4" d="" stroke="none" fill="#080404" fill-rule="evenodd"></path></g></svg>