<?xml version="1.0" standalone="no"?>
<!DOCTYPE svg PUBLIC "-//W3C//DTD SVG 20010904//EN"
 "http://www.w3.org/TR/2001/REC-SVG-20010904/DTD/svg10.dtd">
<svg version="1.0" xmlns="http://www.w3.org/2000/svg"
 width="512.000000pt" height="512.000000pt" viewBox="0 0 512.000000 512.000000"
 preserveAspectRatio="xMidYMid meet">

<g transform="translate(0.000000,512.000000) scale(0.100000,-0.100000)"
fill="#000000" stroke="none">
<path d="M2305 4484 c-410 -41 -665 -98 -1000 -222 -408 -152 -838 -423 -1153
-727 -114 -109 -141 -151 -149 -230 -12 -116 67 -237 178 -269 66 -20 92 -20
156 -1 41 12 75 37 179 131 350 314 666 505 1069 644 319 110 626 160 975 160
349 0 656 -50 975 -160 399 -138 721 -331 1064 -640 108 -97 143 -123 184
-135 64 -19 90 -19 156 1 111 32 190 153 178 269 -8 79 -35 121 -149 230 -315
304 -745 575 -1153 727 -276 103 -515 162 -820 204 -105 14 -597 27 -690 18z"/>
<path d="M2335 3279 c-453 -43 -904 -232 -1256 -527 -136 -114 -195 -182 -214
-244 -19 -65 -19 -91 1 -157 32 -111 153 -190 269 -178 70 7 115 32 205 114
239 217 490 353 788 427 148 37 262 50 432 50 170 0 284 -13 432 -50 298 -74
549 -210 788 -427 90 -82 135 -107 205 -114 116 -12 237 67 269 178 42 141 -1
223 -213 401 -472 395 -1088 585 -1706 527z"/>
<path d="M2365 2196 c-125 -24 -228 -56 -324 -102 -183 -86 -362 -229 -403
-321 -42 -96 -15 -228 60 -295 60 -52 115 -71 191 -66 79 6 110 21 191 92 82
71 168 121 265 153 71 24 95 27 215 27 120 0 144 -3 215 -27 97 -32 183 -82
265 -153 81 -71 112 -86 191 -92 51 -3 75 0 110 15 102 45 162 136 162 244 -1
79 -30 137 -105 209 -137 131 -337 240 -536 292 -100 26 -139 31 -272 34 -103
2 -179 -1 -225 -10z"/>
<path d="M2485 1187 c-64 -22 -100 -44 -135 -83 -124 -142 -84 -357 85 -447
57 -31 193 -31 250 0 171 92 210 308 81 451 -65 71 -194 107 -281 79z"/>
</g>
</svg>
